<svg width="1730" height="1194" xmlns="http://www.w3.org/2000/svg">
 <title>Neo4j Graph Visualization</title>

 <desc>Created using Neo4j (http://www.neo4j.com/)</desc>
 <g>
  <title>background</title>
  <rect fill="none" id="canvas_background" height="1196" width="1732" y="-1" x="-1"/>
 </g>
 <g>
  <title>Layer 1</title>
  <g id="svg_1" class="layer relationships">
   <g id="svg_2" transform="rotate(393.7810363769531 1232.4483642578127,742.94287109375) " class="relationship">
    <path id="svg_3" d="m1257.44833,743.44284l13.34221,0l0,-1l-13.34221,0l0,1zm146.34221,0l13.34221,0l0,3l7,-3.5l-7,-3.5l0,3l-13.34221,0l0,1z" fill="#A5ABB6" class="outline"/>
    <text id="svg_4" font-family="sans-serif" y="745.94284" x="1337.29054" fill="#000000" font-size="8px" text-anchor="middle">WasDerivedFrom-address-addressed</text>
   </g>
   <g id="svg_5" transform="rotate(349.9278564453125 1232.4483642578143,742.942871093751) " class="relationship">
    <path id="svg_6" d="m1257.44833,743.44284l35.42278,0l0,-1l-35.42278,0l0,1zm164.42278,0l35.42278,0l0,3l7,-3.5l-7,-3.5l0,3l-35.42278,0l0,1z" fill="#A5ABB6" class="outline"/>
    <text id="svg_7" font-family="sans-serif" y="745.94284" x="1357.37111" fill="#000000" font-size="8px" text-anchor="middle">WasGeneratedBy-task-socket_create</text>
   </g>
   <g id="svg_8" transform="rotate(226.3931121826172 1232.4483642578125,742.9428710937499) " class="relationship">
    <path id="svg_9" d="m1257.44833,743.44284l153.63084,0l0,-1l-153.63084,0l0,1zm262.63084,0l153.63083,0l0,3l7,-3.5l-7,-3.5l0,3l-153.63083,0l0,1z" fill="#A5ABB6" class="outline"/>
    <text id="svg_10" font-family="sans-serif" transform="rotate(180 1465.5791015625,742.94287109375) " y="745.94284" x="1465.57917" fill="#000000" font-size="8px" text-anchor="middle">WasGeneratedBy-task-connect</text>
   </g>
   <g id="svg_11" transform="rotate(283.2911682128906 830.979797363281,717.9911499023436) " class="relationship">
    <path id="svg_12" d="m854.99853,711.03773l0.25882,0.96593a534.54248,534.54248 0 0 1 86.07357,-15.65175l-0.0978,-0.99521a535.54248,535.54248 0 0 0 -86.23459,15.68103zm185.18435,-16.21899l-0.08697,0.99621a534.54248,534.54248 0 0 1 86.23867,14.71493l-0.7449,2.90605l7.64983,-1.65229l-5.91172,-5.12849l-0.74491,2.90604a535.54248,535.54248 0 0 0 -86.4,-14.74245" fill="#A5ABB6" class="outline"/>
    <text id="svg_13" font-family="sans-serif" y="696.29747" x="990.69827" fill="#000000" font-size="8px" text-anchor="middle">WasGeneratedBy-task-send</text>
   </g>
   <g id="svg_14" transform="rotate(283.2911682128906 830.979797363281,717.9911499023436) " class="relationship">
    <path id="svg_15" d="m854.99853,724.94461l0.25882,-0.96593a534.54248,534.54248 0 0 0 76.63668,14.63975l-0.11545,0.99331a535.54248,535.54248 0 0 1 -76.78005,-14.66713zm194.64936,15.30796l-0.10464,-0.99451a534.54248,534.54248 0 0 0 76.79133,-13.8056l-0.7449,-2.90605l7.64983,1.65229l-5.91172,5.12849l-0.74491,-2.90604a535.54248,535.54248 0 0 1 -76.93499,13.83142" fill="#A5ABB6" class="outline"/>
    <text id="svg_16" font-family="sans-serif" y="745.68486" x="990.69827" fill="#000000" font-size="8px" text-anchor="middle">WasGeneratedBy-task-send_msg</text>
   </g>
   <g id="svg_17" transform="rotate(388.512451171875 830.9797973632815,717.9911499023438) " class="relationship">
    <path id="svg_18" d="m855.97979,718.49117l49.94623,0l0,-1l-49.94623,0l0,1zm190.94623,0l49.94622,0l0,3l7,-3.5l-7,-3.5l0,3l-49.94622,0l0,1z" fill="#A5ABB6" class="outline"/>
    <text id="svg_19" font-family="sans-serif" y="720.99117" x="976.42602" fill="#000000" font-size="8px" text-anchor="middle">WasDerivedFrom-packet-receive_packet</text>
   </g>
   <g id="svg_20" transform="rotate(363.5564270019531 830.9797973632834,717.9911499023433) " class="relationship">
    <path id="svg_21" d="m855.97979,718.49117l104.12159,0l0,-1l-104.12159,0l0,1zm241.12159,0l104.12159,0l0,3l7,-3.5l-7,-3.5l0,3l-104.12159,0l0,1z" fill="#A5ABB6" class="outline"/>
    <text id="svg_22" font-family="sans-serif" y="720.99117" x="1028.60138" fill="#000000" font-size="8px" text-anchor="middle">WasDerivedFrom-socket-version_entity</text>
   </g>
   <g id="svg_23" transform="rotate(244.0597686767578 942.59228515625,947.4378662109375) " class="relationship">
    <path id="svg_24" d="m967.59229,947.93784l30.57657,0l0,-1l-30.57657,0l0,1zm167.57657,0l30.57656,0l0,3l7,-3.5l-7,-3.5l0,3l-30.57656,0l0,1z" fill="#A5ABB6" class="outline"/>
    <text id="svg_25" font-family="sans-serif" transform="rotate(180 1066.6688232421875,947.4378662109376) " y="950.43784" x="1066.66885" fill="#000000" font-size="8px" text-anchor="middle">WasDerivedFrom-socket-version_entity</text>
   </g>
   <g id="svg_26" transform="rotate(498.7646789550781 942.59228515625,947.4378662109375) " class="relationship">
    <path id="svg_27" d="m967.59229,947.93784l2.69937,0l0,-1l-2.69937,0l0,1zm143.69937,0l2.69937,0l0,3l7,-3.5l-7,-3.5l0,3l-2.69937,0l0,1z" fill="#A5ABB6" class="outline"/>
    <text id="svg_28" font-family="sans-serif" transform="rotate(180 1040.7916259765625,947.4378662109376) " y="950.43784" x="1040.79166" fill="#000000" font-size="8px" text-anchor="middle">WasDerivedFrom-packet-receive_packet</text>
   </g>
   <g id="svg_29" transform="rotate(461.3904113769531 942.5922851562499,947.4378662109375) " class="relationship">
    <path id="svg_30" d="m967.59229,947.93784l14.09888,0l0,-1l-14.09888,0l0,1zm155.09888,0l14.09887,0l0,3l7,-3.5l-7,-3.5l0,3l-14.09887,0l0,1z" fill="#A5ABB6" class="outline"/>
    <text id="svg_31" font-family="sans-serif" transform="rotate(180 1052.191162109375,947.4378662109376) " y="950.43784" x="1052.19116" fill="#000000" font-size="8px" text-anchor="middle">WasDerivedFrom-packet-receive_packet</text>
   </g>
   <g id="svg_32" transform="rotate(523.4337768554688 1063.732421875,648.75390625) " class="relationship">
    <path id="svg_33" d="m1087.75122,655.70738l0.25882,-0.96593a372.14079,372.14079 0 0 0 56.24407,10.51652l-0.10769,0.99418a373.14079,373.14079 0 0 1 -56.3952,-10.54477zm131.36717,11.08897l-0.09324,-0.99564a372.14079,372.14079 0 0 0 56.39081,-9.69893l-0.73431,-2.90874l7.64376,1.68014l-5.93037,5.10693l-0.73431,-2.90875a373.14079,373.14079 0 0 1 -56.54234,9.72499" fill="#A5ABB6" class="outline"/>
    <text id="svg_34" font-family="sans-serif" transform="rotate(180 1181.622314453125,667.9119873046876) " y="670.91202" x="1181.62234" fill="#000000" font-size="8px" text-anchor="middle">Used-socket-receive</text>
   </g>
   <g id="svg_35" transform="rotate(237.60061645507812 1063.7324218749998,648.75390625) " class="relationship">
    <path id="svg_36" d="m1088.73248,649.25394l55.15432,0l0,-1l-55.15432,0l0,1zm182.15432,0l55.15432,0l0,3l7,-3.5l-7,-3.5l0,3l-55.15432,0l0,1z" fill="#A5ABB6" class="outline"/>
    <text id="svg_37" font-family="sans-serif" transform="rotate(180 1207.3868408203125,648.7539062500001) " y="651.75394" x="1207.3868" fill="#000000" font-size="8px" text-anchor="middle">WasInformedBy-task-version_activity</text>
   </g>
   <g id="svg_38" transform="rotate(523.4337768554688 1063.732421875,648.75390625) " class="relationship">
    <path id="svg_39" d="m1087.75122,641.8005l0.25882,0.96593a372.14079,372.14079 0 0 1 46.82602,-9.3748l-0.13299,-0.99111a373.14079,373.14079 0 0 0 -46.95185,9.39998zm140.82614,-10.08139l-0.11858,0.99294a372.14079,372.14079 0 0 1 46.95718,8.69405l-0.73431,2.90874l7.64376,-1.68014l-5.93037,-5.10693l-0.73431,2.90875a373.14079,373.14079 0 0 0 -47.08337,-8.71741" fill="#A5ABB6" class="outline"/>
    <text id="svg_40" font-family="sans-serif" transform="rotate(180 1181.622314453125,629.5958251953126) " y="632.59585" x="1181.62234" fill="#000000" font-size="8px" text-anchor="middle">Used-socket-receive_msg</text>
   </g>
   <g id="svg_41" transform="rotate(233.50723266601562 1202.7312011718752,836.6495361328127) " class="relationship">
    <path id="svg_42" d="m1227.7312,837.14954l25.86039,0l0,-1l-25.86039,0l0,1zm150.86039,0l25.8604,0l0,3l7,-3.5l-7,-3.5l0,3l-25.8604,0l0,1z" fill="#A5ABB6" class="outline"/>
    <text id="svg_43" font-family="sans-serif" transform="rotate(180 1316.091552734375,836.6495361328126) " y="839.64954" x="1316.09159" fill="#000000" font-size="8px" text-anchor="middle">WasInformedBy-task-terminate_task</text>
   </g>
   <g id="svg_44" transform="rotate(337.0740051269531 1359.5244140625,616.4749145507815) " class="relationship">
    <path id="svg_45" d="m1384.52435,616.9749l48.37207,0l0,-1l-48.37207,0l0,1zm155.37207,0l48.37208,0l0,3l7,-3.5l-7,-3.5l0,3l-48.37208,0l0,1z" fill="#A5ABB6" class="outline"/>
    <text id="svg_46" font-family="sans-serif" y="619.4749" x="1486.39643" fill="#000000" font-size="8px" text-anchor="middle">WasDerivedFrom-path-named</text>
   </g>
   <g id="svg_47" transform="rotate(340.7684631347656 1485.3354492187502,698.0235595703128) " class="relationship">
    <path id="svg_48" d="m1510.33545,698.52357l22.97615,0l0,-1l-22.97615,0l0,1zm152.97615,0l22.97616,0l0,3l7,-3.5l-7,-3.5l0,3l-22.97616,0l0,1z" fill="#A5ABB6" class="outline"/>
    <text id="svg_49" font-family="sans-serif" y="701.02357" x="1598.3116" fill="#000000" font-size="8px" text-anchor="middle">WasAssociatedWith-machine-ran_on</text>
   </g>
   <g id="svg_50" transform="rotate(212.9506378173828 1485.33544921875,698.0235595703125) " class="relationship">
    <path id="svg_51" d="m1510.33545,698.52357l0.46436,0l0,-1l-0.46436,0l0,1zm92.46436,0l0.46435,0l0,3l7,-3.5l-7,-3.5l0,3l-0.46435,0l0,1z" fill="#A5ABB6" class="outline"/>
    <text id="svg_52" font-family="sans-serif" transform="rotate(180 1556.7998046875,698.0235595703125) " y="701.02357" x="1556.79981" fill="#000000" font-size="8px" text-anchor="middle">Used-process_memory…</text>
   </g>
   <g id="svg_53" transform="rotate(320.5191650390625 1338.5571289062498,502.1296691894534) " class="relationship">
    <path id="svg_54" d="m1363.55707,502.62968l42.5951,0l0,-1l-42.5951,0l0,1zm104.5951,0l42.59509,0l0,3l7,-3.5l-7,-3.5l0,3l-42.59509,0l0,1z" fill="#A5ABB6" class="outline"/>
    <text id="svg_55" font-family="sans-serif" y="505.12968" x="1437.15216" fill="#000000" font-size="8px" text-anchor="middle">Used-file-getattr</text>
   </g>
   <g id="svg_56" transform="rotate(413.1567077636719 1338.5571289062502,502.12966918945307) " class="relationship">
    <path id="svg_57" d="m1363.55707,502.62968l30.39109,0l0,-1l-30.39109,0l0,1zm157.39109,0l30.39109,0l0,3l7,-3.5l-7,-3.5l0,3l-30.39109,0l0,1z" fill="#A5ABB6" class="outline"/>
    <text id="svg_58" font-family="sans-serif" y="505.12968" x="1457.44816" fill="#000000" font-size="8px" text-anchor="middle">WasInformedBy-task-version_activity</text>
   </g>
   <g id="svg_59" transform="rotate(320.4068908691406 1496.15869140625,372.3014526367188) " class="relationship">
    <path id="svg_60" d="m1521.15869,372.80144l14.03028,0l0,-1l-14.03028,0l0,1zm121.03028,0l14.03029,0l0,3l7,-3.5l-7,-3.5l0,3l-14.03029,0l0,1z" fill="#A5ABB6" class="outline"/>
    <text id="svg_61" font-family="sans-serif" y="375.30144" x="1588.68898" fill="#000000" font-size="8px" text-anchor="middle">WasDerivedFrom-path-named</text>
   </g>
   <g id="svg_62" transform="rotate(386.5633850097656 1117.372924804688,495.40798950195307) " class="relationship">
    <path id="svg_63" d="m1142.37296,495.90798l20.36479,0l0,-1l-20.36479,0l0,1zm193.36479,0l20.3648,0l0,3l7,-3.5l-7,-3.5l0,3l-20.3648,0l0,1z" fill="#A5ABB6" class="outline"/>
    <text id="svg_64" font-family="sans-serif" y="498.40798" x="1249.23775" fill="#000000" font-size="8px" text-anchor="middle">WasDerivedFrom-process_memory-version_entity</text>
   </g>
   <g id="svg_65" transform="rotate(361.74066162109375 1117.3729248046889,495.4079895019565) " class="relationship">
    <path id="svg_66" d="m1142.37296,495.90798l17.64312,0l0,-1l-17.64312,0l0,1zm146.64312,0l17.64311,0l0,3l7,-3.5l-7,-3.5l0,3l-17.64311,0l0,1z" fill="#A5ABB6" class="outline"/>
    <text id="svg_67" font-family="sans-serif" y="498.40798" x="1224.51607" fill="#000000" font-size="8px" text-anchor="middle">WasGeneratedBy-task-memory_write</text>
   </g>
   <g id="svg_68" transform="rotate(282.9297180175781 1178.2386474609373,372.5749511718749) " class="relationship">
    <path id="svg_69" d="m1195.5628,354.54374l0.7071,0.7071a119.56821,119.56821 0 0 1 44.69258,-28.1829l-0.33332,-0.94281a120.56821,120.56821 0 0 0 -45.06636,28.41861zm120.09474,-30.17009l-0.28896,0.95734a119.56821,119.56821 0 0 1 45.95898,26.06673l-2.02002,2.21799l7.53202,2.12573l-2.81863,-7.30105l-2.02003,2.21799a120.56821,120.56821 0 0 0 -46.34336,-26.28473" fill="#A5ABB6" class="outline"/>
    <text id="svg_70" font-family="sans-serif" y="322.76283" x="1278.01527" fill="#000000" font-size="8px" text-anchor="middle">Used-file-perm_read</text>
   </g>
   <g id="svg_71" transform="rotate(476.3591613769531 1178.2386474609375,372.57495117187517) " class="relationship">
    <path id="svg_72" d="m1203.23868,373.07496l2.04303,0l0,-1l-2.04303,0l0,1zm78.04303,0l2.04303,0l0,3l7,-3.5l-7,-3.5l0,3l-2.04303,0l0,1z" fill="#A5ABB6" class="outline"/>
    <text id="svg_73" font-family="sans-serif" transform="rotate(180 1243.28173828125,372.57495117187494) " y="375.57496" x="1243.28171" fill="#000000" font-size="8px" text-anchor="middle">Used-process_me…</text>
   </g>
   <g id="svg_74" transform="rotate(282.9297180175781 1178.2386474609373,372.5749511718749) " class="relationship">
    <path id="svg_75" d="m1202.25742,365.62152l0.25882,0.96593a302.53245,302.53245 0 0 1 47.83604,-8.77071l-0.1007,-0.99492a303.53245,303.53245 0 0 0 -47.99416,8.7997zm104.00477,-9.27423l-0.08383,0.99648a302.53245,302.53245 0 0 1 47.97778,7.95896l-0.72725,2.91052l7.63966,-1.69869l-5.94275,-5.09252l-0.72725,2.91052a303.53245,303.53245 0 0 0 -48.13636,-7.98527" fill="#A5ABB6" class="outline"/>
    <text id="svg_76" font-family="sans-serif" y="358.78978" x="1278.25015" fill="#000000" font-size="8px" text-anchor="middle">Used-file-open</text>
   </g>
   <g id="svg_77" transform="rotate(359.9507141113281 1178.238647461081,372.5749511719216) " class="relationship">
    <path id="svg_78" d="m1195.5628,390.60618l0.7071,-0.7071a198.41602,198.41602 0 0 0 99.64526,53.90476l-0.2049,0.97879a199.41602,199.41602 0 0 1 -100.14746,-54.17645zm175.86702,55.33726l-0.17481,-0.9846a198.41602,198.41602 0 0 0 101.25082,-50.82494l-2.05529,-2.18535l7.49699,-2.24611l-2.7013,7.34526l-2.0553,-2.18535a199.41602,199.41602 0 0 1 -101.76111,51.08109" fill="#A5ABB6" class="outline"/>
    <text id="svg_79" font-family="sans-serif" y="451.49041" x="1333.52209" fill="#000000" font-size="8px" text-anchor="middle">Used-file-perm_read</text>
   </g>
   <g id="svg_80" transform="rotate(359.9507141113281 1178.238647461081,372.5749511719216) " class="relationship">
    <path id="svg_81" d="m1202.25742,379.5284l0.25882,-0.96593a517.94867,517.94867 0 0 0 103.70874,16.75893l-0.05858,0.99828a518.94867,518.94867 0 0 1 -103.90898,-16.79128zm158.93535,17.09833l-0.04745,-0.99887a517.94867,517.94867 0 0 0 103.88932,-15.60053l-0.74407,-2.90626l7.64936,1.65448l-5.9132,5.1268l-0.74407,-2.90626a518.94867,518.94867 0 0 1 -104.08989,15.63064" fill="#A5ABB6" class="outline"/>
    <text id="svg_82" font-family="sans-serif" y="399.70307" x="1333.6783" fill="#000000" font-size="8px" text-anchor="middle">Used-file-read</text>
   </g>
   <g id="svg_83" transform="rotate(282.9297180175781 1178.2386474609373,372.5749511718749) " class="relationship">
    <path id="svg_84" d="m1202.25742,379.5284l0.25882,-0.96593a302.53245,302.53245 0 0 0 48.33272,8.82057l-0.09906,0.99508a303.53245,303.53245 0 0 1 -48.49248,-8.84972zm103.50567,9.3158l-0.08218,-0.99661a302.53245,302.53245 0 0 0 48.47523,-8.0004l-0.72725,-2.91052l7.63966,1.69869l-5.94275,5.09252l-0.72725,-2.91052a303.53245,303.53245 0 0 1 -48.63546,8.02684" fill="#A5ABB6" class="outline"/>
    <text id="svg_85" font-family="sans-serif" y="392.36014" x="1278.25015" fill="#000000" font-size="8px" text-anchor="middle">Used-file-read</text>
   </g>
   <g id="svg_86" transform="rotate(359.9507141113281 1178.238647461081,372.5749511719216) " class="relationship">
    <path id="svg_87" d="m1202.25742,365.62152l0.25882,0.96593a517.94867,517.94867 0 0 1 100.21884,-16.54228l-0.06532,-0.99787a518.94867,518.94867 0 0 0 -100.41234,16.57422zm162.43419,-16.9203l-0.05419,0.99853a517.94867,517.94867 0 0 1 100.39722,15.42284l-0.74407,2.90626l7.64936,-1.65448l-5.9132,-5.1268l-0.74407,2.90626a518.94867,518.94867 0 0 0 -100.59105,-15.45261" fill="#A5ABB6" class="outline"/>
    <text id="svg_88" font-family="sans-serif" y="351.44684" x="1333.6783" fill="#000000" font-size="8px" text-anchor="middle">Used-file-getattr</text>
   </g>
   <g id="svg_89" transform="rotate(359.9507141113281 1178.238647461081,372.5749511719216) " class="relationship">
    <path id="svg_90" d="m1195.5628,354.54374l0.7071,0.7071a198.41602,198.41602 0 0 1 109.45574,-55.70243l-0.15546,-0.98784a199.41602,199.41602 0 0 0 -110.00738,55.98317zm165.95635,-56.84089l-0.1251,0.99214a198.41602,198.41602 0 0 1 111.11178,52.32103l-2.05529,2.18535l7.49699,2.24611l-2.7013,-7.34526l-2.0553,2.18535a199.41602,199.41602 0 0 0 -111.67178,-52.58472" fill="#A5ABB6" class="outline"/>
    <text id="svg_91" font-family="sans-serif" y="299.65951" x="1333.52209" fill="#000000" font-size="8px" text-anchor="middle">Used-file-open</text>
   </g>
   <g id="svg_92" transform="rotate(282.9297180175781 1178.2386474609373,372.5749511718749) " class="relationship">
    <path id="svg_93" d="m1195.5628,390.60618l0.7071,-0.7071a119.56821,119.56821 0 0 0 51.32877,30.31361l-0.27782,0.96063a120.56821,120.56821 0 0 1 -51.75805,-30.56714zm113.31008,32.00402l-0.23269,-0.97255a119.56821,119.56821 0 0 0 52.68737,-27.88545l-2.02002,-2.21799l7.53202,-2.12573l-2.81863,7.30105l-2.02003,-2.21799a120.56821,120.56821 0 0 1 -53.12802,28.11866" fill="#A5ABB6" class="outline"/>
    <text id="svg_94" font-family="sans-serif" y="428.38709" x="1278.01527" fill="#000000" font-size="8px" text-anchor="middle">Used-file-getattr</text>
   </g>
   <g id="svg_95" transform="rotate(398.9419860839844 1178.2386474609375,372.574951171875) " class="relationship">
    <path id="svg_96" d="m1203.23868,373.07496l11.06116,0l0,-1l-11.06116,0l0,1zm138.06116,0l11.06117,0l0,3l7,-3.5l-7,-3.5l0,3l-11.06117,0l0,1z" fill="#A5ABB6" class="outline"/>
    <text id="svg_97" font-family="sans-serif" y="375.57496" x="1277.79984" fill="#000000" font-size="8px" text-anchor="middle">WasInformedBy-task-version_activity</text>
   </g>
   <g id="svg_98" transform="rotate(311.6273193359375 1224.574951171875,170.74133300781259) " class="relationship">
    <path id="svg_99" d="m1249.57498,171.24133l15.48826,0l0,-1l-15.48826,0l0,1zm122.48826,0l15.48826,0l0,3l7,-3.5l-7,-3.5l0,3l-15.48826,0l0,1z" fill="#A5ABB6" class="outline"/>
    <text id="svg_100" font-family="sans-serif" y="173.74133" x="1318.56324" fill="#000000" font-size="8px" text-anchor="middle">WasDerivedFrom-path-named</text>
   </g>
   <g id="svg_101" transform="rotate(506.8260192871094 1407.9505615234375,222.40458679199222) " class="relationship">
    <path id="svg_102" d="m1431.9693,229.35803l0.25882,-0.96593a433.57226,433.57226 0 0 0 55.15221,11.00194l-0.13161,0.99131a434.57226,434.57226 0 0 1 -55.27942,-11.02732zm164.11623,11.72853l-0.11883,-0.99292a433.57226,433.57226 0 0 0 55.28939,-10.29039l-0.73905,-2.90754l7.64649,1.66767l-5.92203,5.11659l-0.73906,-2.90754a434.57226,434.57226 0 0 1 -55.41691,10.31413" fill="#A5ABB6" class="outline"/>
    <text id="svg_103" font-family="sans-serif" transform="rotate(180 1541.6483154296875,243.65670776367185) " y="246.65671" x="1541.6483" fill="#000000" font-size="8px" text-anchor="middle">WasGeneratedBy-task-connect</text>
   </g>
   <g id="svg_104" transform="rotate(506.8260192871094 1407.9505615234375,222.40458679199222) " class="relationship">
    <path id="svg_105" d="m1431.9693,215.45115l0.25882,0.96593a433.57226,433.57226 0 0 1 45.26664,-9.57338l-0.15442,-0.988a434.57226,434.57226 0 0 0 -45.37104,9.59545zm174.04223,-10.42445l-0.14168,0.98991a433.57226,433.57226 0 0 1 45.38624,8.98932l-0.73905,2.90754l7.64649,-1.66767l-5.92203,-5.11659l-0.73906,2.90754a434.57226,434.57226 0 0 0 -45.49091,-9.01005" fill="#A5ABB6" class="outline"/>
    <text id="svg_106" font-family="sans-serif" transform="rotate(180 1541.6483154296875,201.15246582031247) " y="204.15247" x="1541.6483" fill="#000000" font-size="8px" text-anchor="middle">WasGeneratedBy-task-socket_create</text>
   </g>
   <g id="svg_107" transform="rotate(300.2232971191406 1407.9505615234377,222.40458679199236) " class="relationship">
    <path id="svg_108" d="m1432.95056,222.90459l9.04416,0l0,-1l-9.04416,0l0,1zm142.04416,0l9.04416,0l0,3l7,-3.5l-7,-3.5l0,3l-9.04416,0l0,1z" fill="#A5ABB6" class="outline"/>
    <text id="svg_109" font-family="sans-serif" y="225.40459" x="1508.49472" fill="#000000" font-size="8px" text-anchor="middle">WasDerivedFrom-address-addressed</text>
   </g>
   <g id="svg_110" transform="rotate(518.1876831054688 1599.0634765625,145.91714477539062) " class="relationship">
    <path id="svg_111" d="m1624.06354,146.41714l21.92534,0l0,-1l-21.92534,0l0,1zm126.92534,0l21.92534,0l0,3l7,-3.5l-7,-3.5l0,3l-21.92534,0l0,1z" fill="#A5ABB6" class="outline"/>
    <text id="svg_112" font-family="sans-serif" transform="rotate(180 1698.4888916015625,145.91714477539062) " y="148.91714" x="1698.48888" fill="#000000" font-size="8px" text-anchor="middle">WasDerivedFrom-socket-free</text>
   </g>
   <g id="svg_113" transform="rotate(295.7672424316406 997.7329101562499,251.82411193847645) " class="relationship">
    <path id="svg_114" d="m1022.73291,252.32411l5.48043,0l0,-1l-5.48043,0l0,1zm138.48043,0l5.48042,0l0,3l7,-3.5l-7,-3.5l0,3l-5.48042,0l0,1z" fill="#A5ABB6" class="outline"/>
    <text id="svg_115" font-family="sans-serif" y="254.82411" x="1094.71334" fill="#000000" font-size="8px" text-anchor="middle">WasDerivedFrom-address-addressed</text>
   </g>
   <g id="svg_116" transform="rotate(393.7808837890625 997.7329101562498,251.82411193847656) " class="relationship">
    <path id="svg_117" d="m1021.75165,258.77755l0.25882,-0.96593a322.19094,322.19094 0 0 0 26.66417,5.94558l-0.17606,0.98438a323.19094,323.19094 0 0 1 -26.74693,-5.96403zm135.394,6.84305l-0.16011,-0.9871a322.19094,322.19094 0 0 0 26.75688,-5.51338l-0.72947,-2.90996l7.64096,1.69286l-5.93886,5.09705l-0.72947,-2.90996a323.19094,323.19094 0 0 1 -26.83993,5.53049" fill="#A5ABB6" class="outline"/>
    <text id="svg_118" font-family="sans-serif" y="272.27945" x="1102.78896" fill="#000000" font-size="8px" text-anchor="middle">WasGeneratedBy-task-connect</text>
   </g>
   <g id="svg_119" transform="rotate(393.7808837890625 997.7329101562498,251.82411193847656) " class="relationship">
    <path id="svg_120" d="m1021.75165,244.87067l0.25882,0.96593a322.19094,322.19094 0 0 1 16.86443,-4.03571l-0.20647,-0.97845a323.19094,323.19094 0 0 0 -16.91678,4.04823zm145.25386,-5.08655l-0.19062,0.98166a322.19094,322.19094 0 0 1 16.92753,3.76232l-0.72947,2.90996l7.64096,-1.69286l-5.93886,-5.09705l-0.72947,2.90996a323.19094,323.19094 0 0 0 -16.98007,-3.77399" fill="#A5ABB6" class="outline"/>
    <text id="svg_121" font-family="sans-serif" y="237.36877" x="1102.78896" fill="#000000" font-size="8px" text-anchor="middle">WasGeneratedBy-task-socket_create</text>
   </g>
   <g id="svg_122" transform="rotate(425.2574462890625 935.2763671874999,116.29922485351572) " class="relationship">
    <path id="svg_123" d="m960.2764,116.79922l0.61201,0l0,-1l-0.61201,0l0,1zm91.61201,0l0.61201,0l0,3l7,-3.5l-7,-3.5l0,3l-0.61201,0l0,1z" fill="#A5ABB6" class="outline"/>
    <text id="svg_124" font-family="sans-serif" y="119.29922" x="1006.38841" fill="#000000" font-size="8px" text-anchor="middle">WasDerivedFrom-sock…</text>
   </g>
   <g id="svg_125" transform="rotate(360.5957336425781 620.4560546874914,490.24118041992) " class="relationship">
    <path id="svg_126" d="m645.45602,490.74118l153.9719,0l0,-1l-153.9719,0l0,1zm285.9719,0l153.97189,0l0,3l7,-3.5l-7,-3.5l0,3l-153.97189,0l0,1z" fill="#A5ABB6" class="outline"/>
    <text id="svg_127" font-family="sans-serif" y="493.24118" x="865.42792" fill="#000000" font-size="8px" text-anchor="middle">Used-process_memory-memory_read</text>
   </g>
   <g id="svg_128" transform="rotate(496.9024658203125 620.4560546875001,490.2411804199218) " class="relationship">
    <path id="svg_129" d="m626.44353,465.96362l0.96593,0.25882a217.52397,217.52397 0 0 1 154.97417,-154.12045l-0.25348,-0.96735a218.52397,218.52397 0 0 0 -155.68662,154.82898zm259.90083,-156.44195l-0.22342,0.97472a217.52397,217.52397 0 0 1 159.66959,149.25058l-2.87236,0.86576l5.3712,5.69212l1.33097,-7.71224l-2.87236,0.86577a218.52397,218.52397 0 0 0 -160.40362,-149.93671" fill="#A5ABB6" class="outline"/>
    <text id="svg_130" font-family="sans-serif" transform="rotate(180 834.1474609375,304.52392578125) " y="307.52394" x="834.14743" fill="#000000" font-size="8px" text-anchor="middle">Used-file-mmap_read_private</text>
   </g>
   <g id="svg_131" transform="rotate(496.9024658203125 620.4560546875001,490.2411804199218) " class="relationship">
    <path id="svg_132" d="m633.92954,469.17665l0.83147,0.55557a243.85794,243.85794 0 0 1 168.70225,-105.98765l-0.13967,-0.9902a244.85794,244.85794 0 0 0 -169.39405,106.42228zm231.34896,-107.2438l-0.11336,0.99355a243.85794,243.85794 0 0 1 171.45322,101.47721l-2.44934,1.73227l6.89951,3.69415l-1.18439,-7.7361l-2.44933,1.73226a244.85794,244.85794 0 0 0 -172.15631,-101.89334" fill="#A5ABB6" class="outline"/>
    <text id="svg_133" font-family="sans-serif" transform="rotate(180 834.2816162109375,360.8759765625) " y="363.87598" x="834.28159" fill="#000000" font-size="8px" text-anchor="middle">Used-file-getattr</text>
   </g>
   <g id="svg_134" transform="rotate(538.2282104492188 620.4560546875001,490.2411804199218) " class="relationship">
    <path id="svg_135" d="m626.44353,465.96362l0.96593,0.25882a207.22342,207.22342 0 0 1 145.0986,-146.1403l-0.26572,-0.96405a208.22342,208.22342 0 0 0 -145.79881,146.84553zm249.92089,-148.5338l-0.23432,0.97215a207.22342,207.22342 0 0 1 149.76024,141.35934l-2.87108,0.87l5.37958,5.68419l1.31961,-7.71418l-2.87109,0.86999a208.22342,208.22342 0 0 0 -150.48294,-142.04149" fill="#A5ABB6" class="outline"/>
    <text id="svg_136" font-family="sans-serif" transform="rotate(180 824.2042236328125,312.1596984863281) " y="315.1597" x="824.20425" fill="#000000" font-size="8px" text-anchor="middle">Used-file-mmap_read_private</text>
   </g>
   <g id="svg_137" transform="rotate(519.7255859375 620.4560546875,490.2411804199218) " class="relationship">
    <path id="svg_138" d="m626.44353,465.96362l0.96593,0.25882a209.55879,209.55879 0 0 1 147.33673,-147.95248l-0.26285,-0.96484a210.55879,210.55879 0 0 0 -148.03981,148.6585zm252.18402,-150.3291l-0.23176,0.97277a209.55879,209.55879 0 0 1 152.00639,143.15065l-2.87138,0.869l5.37761,5.68605l1.32228,-7.71372l-2.87138,0.869a210.55879,210.55879 0 0 0 -152.73176,-143.83375" fill="#A5ABB6" class="outline"/>
    <text id="svg_139" font-family="sans-serif" transform="rotate(180 826.4585571289062,310.428466796875) " y="313.42848" x="826.45854" fill="#000000" font-size="8px" text-anchor="middle">Used-file-mmap_read_private</text>
   </g>
   <g id="svg_140" transform="rotate(460.5999450683594 620.4560546875,490.2411804199219) " class="relationship">
    <path id="svg_141" d="m626.44353,465.96362l0.96593,0.25882a196.9341,196.9341 0 0 1 149.2688,-141.65818l-0.20796,-0.97814a197.9341,197.9341 0 0 0 -150.02677,142.3775zm225.73872,-143.66641l-0.17455,0.98464a196.9341,196.9341 0 0 1 154.00406,136.4953l-2.86967,0.87464l5.38878,5.67548l1.30712,-7.71631l-2.86967,0.87464a197.9341,197.9341 0 0 0 -154.78607,-137.18839" fill="#A5ABB6" class="outline"/>
    <text id="svg_142" font-family="sans-serif" transform="rotate(180 814.2725830078125,319.7872314453125) " y="322.78725" x="814.27258" fill="#000000" font-size="8px" text-anchor="middle">Used-file-perm_read</text>
   </g>
   <g id="svg_143" transform="rotate(538.2282104492188 620.4560546875001,490.2411804199218) " class="relationship">
    <path id="svg_144" d="m633.92954,469.17665l0.83147,0.55557a231.8917,231.8917 0 0 1 151.88776,-99.42005l-0.17647,-0.9843a232.8917,232.8917 0 0 0 -152.54276,99.84878zm228.36001,-100.90175l-0.14907,0.98883a231.8917,231.8917 0 0 1 154.59017,95.16363l-2.44716,1.73534l6.90415,3.68548l-1.19411,-7.73461l-2.44716,1.73534a232.8917,232.8917 0 0 0 -155.25682,-95.57401" fill="#A5ABB6" class="outline"/>
    <text id="svg_145" font-family="sans-serif" transform="rotate(180 824.3447265625,366.195068359375) " y="369.19506" x="824.34473" fill="#000000" font-size="8px" text-anchor="middle">Used-file-perm_read</text>
   </g>
   <g id="svg_146" transform="rotate(538.2282104492188 620.4560546875001,490.2411804199218) " class="relationship">
    <path id="svg_147" d="m639.98547,474.62547l0.60876,0.79335a307.14442,307.14442 0 0 1 131.75429,-58.46511l-0.17979,-0.9837a308.14442,308.14442 0 0 0 -132.18326,58.65546zm236.83882,-59.71542l-0.15983,0.98715a307.14442,307.14442 0 0 1 132.91141,55.78456l-1.77771,2.41657l7.71263,1.32865l-3.56465,-6.9673l-1.7777,2.41656a308.14442,308.14442 0 0 0 -133.34415,-55.96619" fill="#A5ABB6" class="outline"/>
    <text id="svg_148" font-family="sans-serif" transform="rotate(180 824.4562377929688,411.4642333984375) " y="414.46423" x="824.45625" fill="#000000" font-size="8px" text-anchor="middle">Used-file-mmap_exec_private</text>
   </g>
   <g id="svg_149" transform="rotate(519.7255859375 620.4560546875,490.2411804199218) " class="relationship">
    <path id="svg_150" d="m633.92954,469.17665l0.83147,0.55557a234.60473,234.60473 0 0 1 139.97429,-97.70489l-0.23483,-0.97204a235.60473,235.60473 0 0 0 -140.57093,98.12136zm244.91207,-99.55507l-0.20804,0.97812a234.60473,234.60473 0 0 1 142.60599,93.82208l-2.44767,1.73461l6.90306,3.68752l-1.19183,-7.73496l-2.44767,1.73462a235.60473,235.60473 0 0 0 -143.21384,-94.22199" fill="#A5ABB6" class="outline"/>
    <text id="svg_151" font-family="sans-serif" transform="rotate(180 826.5975341796875,364.98907470703125) " y="367.9891" x="826.59754" fill="#000000" font-size="8px" text-anchor="middle">Used-file-mmap_read_private</text>
   </g>
   <g id="svg_152" transform="rotate(538.2282104492188 620.4560546875001,490.2411804199218) " class="relationship">
    <path id="svg_153" d="m643.96855,481.73173l0.32144,0.94693a570.19109,570.19109 0 0 1 127.87401,-27.56147l-0.09717,-0.99527a571.19109,571.19109 0 0 0 -128.09828,27.60981zm233.04061,-28.16959l-0.08655,0.99625a570.19109,570.19109 0 0 1 128.16076,26.19573l-0.93395,2.85091l7.74175,-1.14683l-5.56252,-5.5053l-0.93396,2.85091a571.19109,571.19109 0 0 0 -128.38553,-26.24167" fill="#A5ABB6" class="outline"/>
    <text id="svg_154" font-family="sans-serif" transform="rotate(180 824.5277709960938,451.92681884765625) " y="454.92681" x="824.52778" fill="#000000" font-size="8px" text-anchor="middle">Used-file-mmap_read_private</text>
   </g>
   <g id="svg_155" transform="rotate(216.4912109375 620.4560546875,490.2411804199219) " class="relationship">
    <path id="svg_156" d="m637.78014,472.20996l0.7071,0.7071a248.25414,248.25414 0 0 1 141.58573,-70.37869l-0.13678,-0.9906a249.25414,249.25414 0 0 0 -142.15605,70.66219zm204.11508,-71.4423l-0.11179,0.99373a248.25414,248.25414 0 0 1 143.31281,66.79159l-2.06724,2.17406l7.48458,2.28716l-2.66102,-7.35996l-2.06724,2.17406a249.25414,249.25414 0 0 0 -143.8901,-67.06064" fill="#A5ABB6" class="outline"/>
    <text id="svg_157" font-family="sans-serif" transform="rotate(180 810.897705078125,399.7248229980469) " y="402.72483" x="810.89767" fill="#000000" font-size="8px" text-anchor="middle">Used-file-getattr</text>
   </g>
   <g id="svg_158" transform="rotate(348.087890625 620.4560546875007,490.24118041992165) " class="relationship">
    <path id="svg_159" d="m645.45602,490.74118l193.02931,0l0,-1l-193.02931,0l0,1zm320.02931,0l193.02932,0l0,3l7,-3.5l-7,-3.5l0,3l-193.02932,0l0,1z" fill="#A5ABB6" class="outline"/>
    <text id="svg_160" font-family="sans-serif" y="493.24118" x="901.98534" fill="#000000" font-size="8px" text-anchor="middle">WasInformedBy-task-version_activity</text>
   </g>
   <g id="svg_161" transform="rotate(252.46994018554688 620.4560546875,490.24118041992193) " class="relationship">
    <path id="svg_162" d="m637.78014,472.20996l0.7071,0.7071a152.36818,152.36818 0 0 1 77.12006,-41.51908l-0.20097,-0.9796a153.36818,153.36818 0 0 0 -77.62619,41.79158zm133.48546,-42.86296l-0.16325,0.98659a152.36818,152.36818 0 0 1 78.65541,38.53133l-2.03841,2.2011l7.51406,2.18835l-2.75776,-7.32426l-2.03842,2.20111a153.36818,153.36818 0 0 0 -79.17163,-38.78422" fill="#A5ABB6" class="outline"/>
    <text id="svg_163" font-family="sans-serif" transform="rotate(180 743.29638671875,427.81756591796875) " y="430.81757" x="743.29636" fill="#000000" font-size="8px" text-anchor="middle">Used-file-open</text>
   </g>
   <g id="svg_164" transform="rotate(538.2282104492188 620.4560546875001,490.2411804199218) " class="relationship">
    <path id="svg_165" d="m645.45602,490.74118l126.59639,0l0,-1l-126.59639,0l0,1zm231.59639,0l126.5964,0l0,3l7,-3.5l-7,-3.5l0,3l-126.5964,0l0,1z" fill="#A5ABB6" class="outline"/>
    <text id="svg_166" font-family="sans-serif" transform="rotate(180 824.5524291992188,490.2411804199219) " y="493.24118" x="824.55242" fill="#000000" font-size="8px" text-anchor="middle">Used-file-mmap_read_private</text>
   </g>
   <g id="svg_167" transform="rotate(252.46994018554688 620.4560546875,490.24118041992193) " class="relationship">
    <path id="svg_168" d="m644.47476,483.28774l0.25882,0.96593a392.14363,392.14363 0 0 1 60.88184,-11.25329l-0.10357,-0.99462a393.14363,393.14363 0 0 0 -61.03709,11.28198zm137.01329,-11.81164l-0.08969,0.99597a392.14363,392.14363 0 0 1 61.03282,10.40337l-0.73598,2.90832l7.64473,-1.67575l-5.92744,-5.11033l-0.73598,2.90832a393.14363,393.14363 0 0 0 -61.18846,-10.4299" fill="#A5ABB6" class="outline"/>
    <text id="svg_169" font-family="sans-serif" transform="rotate(180 743.4906005859375,470.4012451171875) " y="473.40124" x="743.49062" fill="#000000" font-size="8px" text-anchor="middle">Used-file-perm_read</text>
   </g>
   <g id="svg_170" transform="rotate(216.4912109375 620.4560546875,490.2411804199219) " class="relationship">
    <path id="svg_171" d="m644.47476,483.28774l0.25882,0.96593a654.10895,654.10895 0 0 1 138.32817,-21.55476l-0.04734,-0.99888a655.10895,655.10895 0 0 0 -138.53965,21.58771zm194.56475,-21.84472l-0.03818,0.99927a654.10895,654.10895 0 0 1 138.52011,20.28474l-0.74984,2.90478l7.65263,-1.63928l-5.903,-5.13854l-0.74984,2.90478a655.10895,655.10895 0 0 0 -138.73188,-20.31575" fill="#A5ABB6" class="outline"/>
    <text id="svg_172" font-family="sans-serif" transform="rotate(180 811.0264892578125,461.47235107421875) " y="464.47234" x="811.02651" fill="#000000" font-size="8px" text-anchor="middle">Used-file-open</text>
   </g>
   <g id="svg_173" transform="rotate(519.7255859375 620.4560546875,490.2411804199218) " class="relationship">
    <path id="svg_174" d="m639.98547,474.62547l0.60876,0.79335a310.84998,310.84998 0 0 1 133.99781,-59.28927l-0.1777,-0.98408a311.84998,311.84998 0 0 0 -134.42887,59.48zm239.09457,-60.52884l-0.15793,0.98745a310.84998,310.84998 0 0 1 135.15903,56.5921l-1.77823,2.41618l7.71235,1.3303l-3.56316,-6.96806l-1.77822,2.41618a311.84998,311.84998 0 0 0 -135.59384,-56.77415" fill="#A5ABB6" class="outline"/>
    <text id="svg_175" font-family="sans-serif" transform="rotate(180 826.7078857421875,410.6983337402344) " y="413.69835" x="826.70789" fill="#000000" font-size="8px" text-anchor="middle">Used-file-mmap_exec_private</text>
   </g>
   <g id="svg_176" transform="rotate(496.9024658203125 620.4560546875001,490.2411804199218) " class="relationship">
    <path id="svg_177" d="m639.98547,474.62547l0.60876,0.79335a323.48837,323.48837 0 0 1 155.96757,-64.24418l-0.12661,-0.99195a324.48837,324.48837 0 0 0 -156.44972,64.44278zm232.38905,-65.17724l-0.1074,0.99421a323.48837,323.48837 0 0 1 157.18096,61.21553l-1.7799,2.41494l7.71141,1.3357l-3.55829,-6.97055l-1.77991,2.41494a324.48837,324.48837 0 0 0 -157.66687,-61.40477" fill="#A5ABB6" class="outline"/>
    <text id="svg_178" font-family="sans-serif" transform="rotate(180 834.3881225585938,408.086181640625) " y="411.08619" x="834.38813" fill="#000000" font-size="8px" text-anchor="middle">Used-file-perm_read</text>
   </g>
   <g id="svg_179" transform="rotate(519.7255859375 620.4560546875,490.2411804199218) " class="relationship">
    <path id="svg_180" d="m643.96855,481.73173l0.32144,0.94693a577.20889,577.20889 0 0 1 151.53784,-29.63017l-0.05891,-0.99826a578.20889,578.20889 0 0 0 -151.80037,29.6815zm213.82339,-30.00885l-0.04836,0.99883a577.20889,577.20889 0 0 1 151.84215,28.02896l-0.93428,2.85082l7.74189,-1.14597l-5.5619,-5.50593l-0.93428,2.85081a578.20889,578.20889 0 0 0 -152.10522,-28.07752" fill="#A5ABB6" class="outline"/>
    <text id="svg_181" font-family="sans-serif" transform="rotate(180 826.7786865234375,451.5543212890625) " y="454.55431" x="826.77868" fill="#000000" font-size="8px" text-anchor="middle">Used-file-getattr</text>
   </g>
   <g id="svg_182" transform="rotate(519.7255859375 620.4560546875,490.2411804199218) " class="relationship">
    <path id="svg_183" d="m645.45602,490.74118l143.34704,0l0,-1l-143.34704,0l0,1zm219.34704,0l143.34703,0l0,3l7,-3.5l-7,-3.5l0,3l-143.34703,0l0,1z" fill="#A5ABB6" class="outline"/>
    <text id="svg_184" font-family="sans-serif" transform="rotate(180 826.8030395507812,490.2411804199219) " y="493.24118" x="826.80306" fill="#000000" font-size="8px" text-anchor="middle">Used-file-perm_read</text>
   </g>
   <g id="svg_185" transform="rotate(460.5999450683594 620.4560546875,490.2411804199219) " class="relationship">
    <path id="svg_186" d="m634.89923,469.82933l0.80459,0.59382a226.11219,226.11219 0 0 1 147.93972,-89.27292l-0.15032,-0.98863a227.11219,227.11219 0 0 0 -148.59399,89.66773zm210.53101,-90.54088l-0.12239,0.99248a226.11219,226.11219 0 0 1 150.39745,85.06714l-2.36262,1.8488l7.07025,3.35584l-1.55748,-7.6697l-2.36261,1.8488a227.11219,227.11219 0 0 0 -151.0626,-85.44336" fill="#A5ABB6" class="outline"/>
    <text id="svg_187" font-family="sans-serif" transform="rotate(180 814.4388427734375,378.10345458984375) " y="381.10346" x="814.43887" fill="#000000" font-size="8px" text-anchor="middle">Used-file-getattr</text>
   </g>
   <g id="svg_188" transform="rotate(496.9024658203125 620.4560546875001,490.2411804199218) " class="relationship">
    <path id="svg_189" d="m643.96855,481.73173l0.32144,0.94693a601.14424,601.14424 0 0 1 137.79157,-29.34074l-0.09223,-0.99574a602.14424,602.14424 0 0 0 -138.02078,29.38955zm242.97337,-29.92422l-0.08208,0.99662a601.14424,601.14424 0 0 1 138.08335,27.93533l-0.93532,2.85047l7.7423,-1.14312l-5.55988,-5.50797l-0.93532,2.85046a602.14424,602.14424 0 0 0 -138.31305,-27.98179" fill="#A5ABB6" class="outline"/>
    <text id="svg_190" font-family="sans-serif" transform="rotate(180 834.4564819335938,450.2838134765625) " y="453.28382" x="834.4565" fill="#000000" font-size="8px" text-anchor="middle">Used-file-mmap_exec_private</text>
   </g>
   <g id="svg_191" transform="rotate(519.7255859375 620.4560546875,490.2411804199218) " class="relationship">
    <path id="svg_192" d="m643.96855,498.75063l0.32144,-0.94693a577.20889,577.20889 0 0 0 129.625,27.91796l-0.09687,0.9953a578.20889,578.20889 0 0 1 -129.84957,-27.96633zm235.79108,28.52547l-0.08636,-0.99626a577.20889,577.20889 0 0 0 129.91246,-26.54815l-0.93428,-2.85082l7.74189,1.14597l-5.5619,5.50593l-0.93428,-2.85081a578.20889,578.20889 0 0 1 -130.13753,26.59414" fill="#A5ABB6" class="outline"/>
    <text id="svg_193" font-family="sans-serif" transform="rotate(180 826.7786865234375,528.9280395507812) " y="531.92806" x="826.77868" fill="#000000" font-size="8px" text-anchor="middle">Used-file-mmap_write_private</text>
   </g>
   <g id="svg_194" transform="rotate(496.9024658203125 620.4560546875001,490.2411804199218) " class="relationship">
    <path id="svg_195" d="m645.45602,490.74118l161.52403,0l0,-1l-161.52403,0l0,1zm216.52403,0l161.52402,0l0,3l7,-3.5l-7,-3.5l0,3l-161.52402,0l0,1z" fill="#A5ABB6" class="outline"/>
    <text id="svg_196" font-family="sans-serif" transform="rotate(180 834.4800415039062,490.2411804199219) " y="493.24118" x="834.48005" fill="#000000" font-size="8px" text-anchor="middle">Used-file-read</text>
   </g>
   <g id="svg_197" transform="rotate(538.2282104492188 620.4560546875001,490.2411804199218) " class="relationship">
    <path id="svg_198" d="m643.96855,498.75063l0.32144,-0.94693a570.19109,570.19109 0 0 0 127.37684,27.51271l-0.09805,0.99518a571.19109,571.19109 0 0 1 -127.60023,-27.56096zm233.53915,28.12606l-0.08742,-0.99617a570.19109,570.19109 0 0 0 127.66309,-26.15228l-0.93395,-2.85091l7.74175,1.14683l-5.56252,5.5053l-0.93396,-2.85091a571.19109,571.19109 0 0 1 -127.88699,26.19814" fill="#A5ABB6" class="outline"/>
    <text id="svg_199" font-family="sans-serif" transform="rotate(180 824.5277709960938,528.5555419921875) " y="531.55555" x="824.52778" fill="#000000" font-size="8px" text-anchor="middle">Used-file-mmap_write_private</text>
   </g>
   <g id="svg_200" transform="rotate(519.7255859375 620.4560546875,490.2411804199218) " class="relationship">
    <path id="svg_201" d="m639.98547,505.85689l0.60876,-0.79335a310.84998,310.84998 0 0 0 158.71203,62.73407l-0.09819,0.99517a311.84998,311.84998 0 0 1 -159.2226,-62.93589zm214.23657,63.48718l-0.07823,-0.99694a310.84998,310.84998 0 0 0 159.93733,-59.54095l-1.77823,-2.41618l7.71235,-1.3303l-3.56316,6.96806l-1.77822,-2.41618a311.84998,311.84998 0 0 1 -160.45184,59.73249" fill="#A5ABB6" class="outline"/>
    <text id="svg_202" font-family="sans-serif" transform="rotate(180 826.7078857421875,569.7840576171875) " y="572.78402" x="826.70789" fill="#000000" font-size="8px" text-anchor="middle">Used-file-read</text>
   </g>
   <g id="svg_203" transform="rotate(460.5999450683594 620.4560546875,490.2411804199219) " class="relationship">
    <path id="svg_204" d="m641.35811,476.51702l0.53203,0.84672a330.32416,330.32416 0 0 1 144.76543,-49.17496l-0.09378,-0.99559a331.32416,331.32416 0 0 0 -145.20368,49.32383zm201.21897,-49.84369l-0.07529,0.99716a330.32416,330.32416 0 0 1 145.65316,46.4797l-1.54867,2.56936l7.80196,0.61599l-4.18838,-6.61116l-1.54868,2.56936a331.32416,331.32416 0 0 0 -146.0941,-46.62041" fill="#A5ABB6" class="outline"/>
    <text id="svg_205" font-family="sans-serif" transform="rotate(180 814.5630493164062,426.2472839355469) " y="429.24729" x="814.56307" fill="#000000" font-size="8px" text-anchor="middle">Used-file-open</text>
   </g>
   <g id="svg_206" transform="rotate(519.7255859375 620.4560546875,490.2411804199218) " class="relationship">
    <path id="svg_207" d="m633.92954,511.30571l0.83147,-0.55557a234.60473,234.60473 0 0 0 163.99441,102.19853l-0.13245,0.99119a235.60473,235.60473 0 0 1 -164.69343,-102.63415zm220.67468,103.40336l-0.10517,-0.99445a234.60473,234.60473 0 0 0 166.74051,-97.65404l-2.44767,-1.73461l6.90306,-3.68752l-1.19183,7.73496l-2.44767,-1.73462a235.60473,235.60473 0 0 1 -167.45123,98.07028" fill="#A5ABB6" class="outline"/>
    <text id="svg_208" font-family="sans-serif" transform="rotate(180 826.5975341796875,615.4932861328125) " y="618.49327" x="826.59754" fill="#000000" font-size="8px" text-anchor="middle">Used-file-open</text>
   </g>
   <g id="svg_209" transform="rotate(496.9024658203125 620.4560546875001,490.2411804199218) " class="relationship">
    <path id="svg_210" d="m643.96855,498.75063l0.32144,-0.94693a601.14424,601.14424 0 0 0 137.79157,29.34074l-0.09223,0.99574a602.14424,602.14424 0 0 1 -138.02078,-29.38955zm242.97337,29.92422l-0.08208,-0.99662a601.14424,601.14424 0 0 0 138.08335,-27.93533l-0.93532,-2.85047l7.7423,1.14312l-5.55988,5.50797l-0.93532,-2.85046a602.14424,602.14424 0 0 1 -138.31305,27.98179" fill="#A5ABB6" class="outline"/>
    <text id="svg_211" font-family="sans-serif" transform="rotate(180 834.4564819335938,530.1985473632812) " y="533.19855" x="834.4565" fill="#000000" font-size="8px" text-anchor="middle">Used-file-mmap_read_private</text>
   </g>
   <g id="svg_212" transform="rotate(460.5999450683594 620.4560546875,490.2411804199219) " class="relationship">
    <path id="svg_213" d="m644.92723,485.10211l0.18591,0.98256a927.96815,927.96815 0 0 1 117.07909,-14.52013l-0.05975,-0.99821a928.96815,928.96815 0 0 0 -117.20525,14.53578zm222.20528,-14.87549l-0.05329,0.99858a927.96815,927.96815 0 0 1 117.17059,13.76226l-0.53865,2.95124l7.51467,-2.18627l-6.25782,-4.69997l-0.53865,2.95125a928.96815,928.96815 0 0 0 -117.29685,-13.77709" fill="#A5ABB6" class="outline"/>
    <text id="svg_214" font-family="sans-serif" transform="rotate(180 814.6293334960938,469.4117736816406) " y="472.41178" x="814.62931" fill="#000000" font-size="8px" text-anchor="middle">Used-file-mmap_read_private</text>
   </g>
   <g id="svg_215" transform="rotate(538.2282104492188 620.4560546875001,490.2411804199218) " class="relationship">
    <path id="svg_216" d="m639.98547,505.85689l0.60876,-0.79335a307.14442,307.14442 0 0 0 155.96547,61.90071l-0.10097,0.99489a308.14442,308.14442 0 0 1 -156.47326,-62.10225zm212.48399,62.66953l-0.0808,-0.99673a307.14442,307.14442 0 0 0 157.18721,-58.72909l-1.77771,-2.41657l7.71263,-1.32865l-3.56465,6.9673l-1.7777,-2.41656a308.14442,308.14442 0 0 1 -157.69898,58.9203" fill="#A5ABB6" class="outline"/>
    <text id="svg_217" font-family="sans-serif" transform="rotate(180 824.4562377929688,569.0181274414062) " y="572.01814" x="824.45625" fill="#000000" font-size="8px" text-anchor="middle">Used-file-open</text>
   </g>
   <g id="svg_218" transform="rotate(252.46994018554688 620.4560546875,490.24118041992193) " class="relationship">
    <path id="svg_219" d="m644.47476,497.19462l0.25882,-0.96593a392.14363,392.14363 0 0 0 71.32535,12.19976l-0.07693,0.99703a393.14363,393.14363 0 0 1 -71.50724,-12.23086zm126.53093,12.61445l-0.06303,-0.99801a392.14363,392.14363 0 0 0 71.48852,-11.20414l-0.73598,-2.90832l7.64473,1.67575l-5.92744,5.11033l-0.73598,-2.90832a393.14363,393.14363 0 0 1 -71.67082,11.23271" fill="#A5ABB6" class="outline"/>
    <text id="svg_220" font-family="sans-serif" transform="rotate(180 743.4906005859375,510.08111572265625) " y="513.08113" x="743.49062" fill="#000000" font-size="8px" text-anchor="middle">Used-file-read</text>
   </g>
   <g id="svg_221" transform="rotate(216.4912109375 620.4560546875,490.2411804199219) " class="relationship">
    <path id="svg_222" d="m644.47476,497.19462l0.25882,-0.96593a654.10895,654.10895 0 0 0 138.82724,21.57822l-0.04658,0.99892a655.10895,655.10895 0 0 1 -139.03948,-21.61121zm194.06472,21.86363l-0.03741,-0.9993a654.10895,654.10895 0 0 0 139.01937,-20.30362l-0.74984,-2.90478l7.65263,1.63928l-5.903,5.13854l-0.74984,-2.90478a655.10895,655.10895 0 0 1 -139.23191,20.33466" fill="#A5ABB6" class="outline"/>
    <text id="svg_223" font-family="sans-serif" transform="rotate(180 811.0264892578125,519.010009765625) " y="522.01003" x="811.02651" fill="#000000" font-size="8px" text-anchor="middle">Used-file-read</text>
   </g>
   <g id="svg_224" transform="rotate(538.2282104492188 620.4560546875001,490.2411804199218) " class="relationship">
    <path id="svg_225" d="m633.92954,511.30571l0.83147,-0.55557a231.8917,231.8917 0 0 0 158.7806,100.54899l-0.14675,0.98917a232.8917,232.8917 0 0 1 -159.46532,-100.98259zm221.40863,101.84287l-0.11922,-0.99286a231.8917,231.8917 0 0 0 161.5117,-96.10072l-2.44716,-1.73534l6.90415,-3.68548l-1.19411,7.73461l-2.44716,-1.73534a232.8917,232.8917 0 0 1 -162.2082,96.51513" fill="#A5ABB6" class="outline"/>
    <text id="svg_226" font-family="sans-serif" transform="rotate(180 824.3447265625,614.2872924804688) " y="617.28731" x="824.34473" fill="#000000" font-size="8px" text-anchor="middle">Used-file-getattr</text>
   </g>
   <g id="svg_227" transform="rotate(460.5999450683594 620.4560546875,490.2411804199219) " class="relationship">
    <path id="svg_228" d="m644.92723,495.38025l0.18591,-0.98256a927.96815,927.96815 0 0 0 141.53862,15.66043l-0.03339,0.99945a928.96815,928.96815 0 0 1 -141.69114,-15.67732zm197.71251,15.85856l-0.02692,-0.99964a927.96815,927.96815 0 0 0 141.63699,-14.74427l-0.53865,-2.95124l7.51467,2.18627l-6.25782,4.69997l-0.53865,-2.95125a928.96815,928.96815 0 0 1 -141.78962,14.76016" fill="#A5ABB6" class="outline"/>
    <text id="svg_229" font-family="sans-serif" transform="rotate(180 814.6293334960938,511.0705871582031) " y="514.07059" x="814.62931" fill="#000000" font-size="8px" text-anchor="middle">Used-file-open</text>
   </g>
   <g id="svg_230" transform="rotate(460.5999450683594 620.4560546875,490.2411804199219) " class="relationship">
    <path id="svg_231" d="m641.35811,503.96534l0.53203,-0.84672a330.32416,330.32416 0 0 0 120.51743,45.9815l-0.16718,0.98593a331.32416,331.32416 0 0 1 -120.88228,-46.12071zm225.59563,47.09251l-0.14886,-0.98886a330.32416,330.32416 0 0 0 121.35007,-43.73682l-1.54867,-2.56936l7.80196,-0.61599l-4.18838,6.61116l-1.54868,-2.56936a331.32416,331.32416 0 0 1 -121.71744,43.86923" fill="#A5ABB6" class="outline"/>
    <text id="svg_232" font-family="sans-serif" transform="rotate(180 814.5630493164062,554.235107421875) " y="557.23508" x="814.56307" fill="#000000" font-size="8px" text-anchor="middle">Used-file-mmap_read_private</text>
   </g>
   <g id="svg_233" transform="rotate(216.4912109375 620.4560546875,490.2411804199219) " class="relationship">
    <path id="svg_234" d="m637.78014,508.2724l0.7071,-0.7071a248.25414,248.25414 0 0 0 134.67982,69.32591l-0.1646,0.98636a249.25414,249.25414 0 0 1 -135.22232,-69.60517zm211.07323,70.56019l-0.13971,-0.99019a248.25414,248.25414 0 0 0 136.38258,-65.91302l-2.06724,-2.17406l7.48458,-2.28716l-2.66102,7.35996l-2.06724,-2.17406a249.25414,249.25414 0 0 1 -136.93195,66.17853" fill="#A5ABB6" class="outline"/>
    <text id="svg_235" font-family="sans-serif" transform="rotate(180 810.897705078125,580.757568359375) " y="583.75754" x="810.89767" fill="#000000" font-size="8px" text-anchor="middle">Used-file-perm_read</text>
   </g>
   <g id="svg_236" transform="rotate(519.7255859375 620.4560546875,490.2411804199218) " class="relationship">
    <path id="svg_237" d="m626.44353,514.51874l0.96593,-0.25882a209.55879,209.55879 0 0 0 147.33673,147.95248l-0.26285,0.96484a210.55879,210.55879 0 0 1 -148.03981,-148.6585zm252.18402,150.3291l-0.23176,-0.97277a209.55879,209.55879 0 0 0 152.00639,-143.15065l-2.87138,-0.869l5.37761,-5.68605l1.32228,7.71372l-2.87138,-0.869a210.55879,210.55879 0 0 1 -152.73176,143.83375" fill="#A5ABB6" class="outline"/>
    <text id="svg_238" font-family="sans-serif" transform="rotate(180 826.4585571289062,670.0538940429688) " y="673.05389" x="826.45854" fill="#000000" font-size="8px" text-anchor="middle">Used-file-mmap_read_private</text>
   </g>
   <g id="svg_239" transform="rotate(538.2282104492188 620.4560546875001,490.2411804199218) " class="relationship">
    <path id="svg_240" d="m626.44353,514.51874l0.96593,-0.25882a207.22342,207.22342 0 0 0 169.48214,151.30629l-0.14805,0.98898a208.22342,208.22342 0 0 1 -170.30002,-152.03645zm225.26428,152.92766l-0.11592,-0.99326a207.22342,207.22342 0 0 0 174.29845,-145.73209l-2.87108,-0.87l5.37958,-5.68419l1.31961,7.71418l-2.87109,-0.86999a208.22342,208.22342 0 0 1 -175.13955,146.43535" fill="#A5ABB6" class="outline"/>
    <text id="svg_241" font-family="sans-serif" transform="rotate(180 824.2042236328125,668.3226318359375) " y="671.32267" x="824.20425" fill="#000000" font-size="8px" text-anchor="middle">Used-file-read</text>
   </g>
   <g id="svg_242" transform="rotate(496.9024658203125 620.4560546875001,490.2411804199218) " class="relationship">
    <path id="svg_243" d="m639.98547,505.85689l0.60876,-0.79335a323.48837,323.48837 0 0 0 165.88972,65.35538l-0.09595,0.99538a324.48837,324.48837 0 0 1 -166.40253,-65.55741zm222.41654,66.09916l-0.07667,-0.99705a323.48837,323.48837 0 0 0 167.12274,-62.13461l-1.7799,-2.41494l7.71141,-1.3357l-3.55829,6.97055l-1.77991,-2.41494a324.48837,324.48837 0 0 1 -167.63938,62.32669" fill="#A5ABB6" class="outline"/>
    <text id="svg_244" font-family="sans-serif" transform="rotate(180 834.3881225585938,572.3961791992188) " y="575.39618" x="834.38813" fill="#000000" font-size="8px" text-anchor="middle">Used-file-open</text>
   </g>
   <g id="svg_245" transform="rotate(252.46994018554688 620.4560546875,490.24118041992193) " class="relationship">
    <path id="svg_246" d="m637.78014,508.2724l0.7071,-0.7071a152.36818,152.36818 0 0 0 74.19696,40.88946l-0.22015,0.97547a153.36818,153.36818 0 0 1 -74.68391,-41.15783zm136.44988,42.34249l-0.18258,-0.98319a152.36818,152.36818 0 0 0 75.71032,-38.01426l-2.03841,-2.2011l7.51406,-2.18835l-2.75776,7.32426l-2.03842,-2.20111a153.36818,153.36818 0 0 1 -76.20721,38.26375" fill="#A5ABB6" class="outline"/>
    <text id="svg_247" font-family="sans-serif" transform="rotate(180 743.29638671875,552.664794921875) " y="555.6648" x="743.29636" fill="#000000" font-size="8px" text-anchor="middle">Used-file-getattr</text>
   </g>
   <g id="svg_248" transform="rotate(460.5999450683594 620.4560546875,490.2411804199219) " class="relationship">
    <path id="svg_249" d="m634.89923,510.65303l0.80459,-0.59382a226.11219,226.11219 0 0 0 141.05184,88.11651l-0.18078,0.98352a227.11219,227.11219 0 0 1 -141.67565,-88.50621zm217.47934,89.57484l-0.15298,-0.98822a226.11219,226.11219 0 0 0 143.47971,-84.10536l-2.36262,-1.8488l7.07025,-3.35584l-1.55748,7.6697l-2.36261,-1.8488a227.11219,227.11219 0 0 1 -144.11427,84.47732" fill="#A5ABB6" class="outline"/>
    <text id="svg_250" font-family="sans-serif" transform="rotate(180 814.4388427734375,602.37890625) " y="605.37891" x="814.43887" fill="#000000" font-size="8px" text-anchor="middle">Used-file-perm_read</text>
   </g>
   <g id="svg_251" transform="rotate(496.9024658203125 620.4560546875001,490.2411804199218) " class="relationship">
    <path id="svg_252" d="m633.92954,511.30571l0.83147,-0.55557a243.85794,243.85794 0 0 0 147.12974,101.94749l-0.22812,0.97363a244.85794,244.85794 0 0 1 -147.73309,-102.36555zm253.10987,103.76285l-0.20223,-0.97934a243.85794,243.85794 0 0 0 149.78118,-98.01047l-2.44934,-1.73227l6.89951,-3.69415l-1.18439,7.7361l-2.44933,-1.73226a244.85794,244.85794 0 0 1 -150.3954,98.41239" fill="#A5ABB6" class="outline"/>
    <text id="svg_253" font-family="sans-serif" transform="rotate(180 834.2816162109375,619.6063842773438) " y="622.60639" x="834.28159" fill="#000000" font-size="8px" text-anchor="middle">Used-file-mmap_write_private</text>
   </g>
   <g id="svg_254" transform="rotate(460.5999450683594 620.4560546875,490.2411804199219) " class="relationship">
    <path id="svg_255" d="m626.44353,514.51874l0.96593,-0.25882a196.9341,196.9341 0 0 0 156.12272,142.98887l-0.17315,0.9849a197.9341,197.9341 0 0 1 -156.9155,-143.71495zm218.80846,144.76861l-0.13954,-0.99022a196.9341,196.9341 0 0 0 160.89931,-137.59192l-2.86967,-0.87464l5.38878,-5.67548l1.30712,7.71631l-2.86967,-0.87464a197.9341,197.9341 0 0 1 -161.71633,138.29059" fill="#A5ABB6" class="outline"/>
    <text id="svg_256" font-family="sans-serif" transform="rotate(180 814.2725830078125,660.6951293945312) " y="663.69512" x="814.27258" fill="#000000" font-size="8px" text-anchor="middle">Used-file-getattr</text>
   </g>
   <g id="svg_257" transform="rotate(496.9024658203125 620.4560546875001,490.2411804199218) " class="relationship">
    <path id="svg_258" d="m626.44353,514.51874l0.96593,-0.25882a217.52397,217.52397 0 0 0 154.97417,154.12045l-0.25348,0.96735a218.52397,218.52397 0 0 1 -155.68662,-154.82898zm259.90083,156.44195l-0.22342,-0.97472a217.52397,217.52397 0 0 0 159.66959,-149.25058l-2.87236,-0.86576l5.3712,-5.69212l1.33097,7.71224l-2.87236,-0.86577a218.52397,218.52397 0 0 1 -160.40362,149.93671" fill="#A5ABB6" class="outline"/>
    <text id="svg_259" font-family="sans-serif" transform="rotate(180 834.1474609375,675.9584350585938) " y="678.95843" x="834.14743" fill="#000000" font-size="8px" text-anchor="middle">Used-file-mmap_read_private</text>
   </g>
   <g id="svg_260" transform="rotate(208.0637969970703 544.2147216796875,248.87640380859375) " class="relationship">
    <path id="svg_261" d="m569.21474,249.3764l27.18509,0l0,-1l-27.18509,0l0,1zm134.18509,0l27.18509,0l0,3l7,-3.5l-7,-3.5l0,3l-27.18509,0l0,1z" fill="#A5ABB6" class="outline"/>
    <text id="svg_262" font-family="sans-serif" transform="rotate(180 649.8998413085938,248.87640380859372) " y="251.8764" x="649.89982" fill="#000000" font-size="8px" text-anchor="middle">WasDerivedFrom-path-named</text>
   </g>
   <g id="svg_263" transform="rotate(503.1290283203125 547.7286376953125,878.8580322265624) " class="relationship">
    <path id="svg_264" d="m572.72864,879.35803l16.21178,0l0,-1l-16.21178,0l0,1zm123.21178,0l16.21179,0l0,3l7,-3.5l-7,-3.5l0,3l-16.21179,0l0,1z" fill="#A5ABB6" class="outline"/>
    <text id="svg_265" font-family="sans-serif" transform="rotate(180 642.4404296875,878.8580322265625) " y="881.85803" x="642.44042" fill="#000000" font-size="8px" text-anchor="middle">WasDerivedFrom-path-named</text>
   </g>
   <g id="svg_266" transform="rotate(536.1090698242188 205.46173095703128,503.0783996582031) " class="relationship">
    <path id="svg_267" d="m230.46173,503.5784l8.43933,0l0,-1l-8.43933,0l0,1zm115.43933,0l8.43932,0l0,3l7,-3.5l-7,-3.5l0,3l-8.43932,0l0,1z" fill="#A5ABB6" class="outline"/>
    <text id="svg_268" font-family="sans-serif" transform="rotate(180 292.4010620117187,503.0783996582031) " y="506.0784" x="292.40106" fill="#000000" font-size="8px" text-anchor="middle">WasDerivedFrom-path-named</text>
   </g>
   <g id="svg_269" transform="rotate(200.62594604492188 308.38372802734375,259.39385986328125) " class="relationship">
    <path id="svg_270" d="m333.38373,259.89388l10.58647,0l0,-1l-10.58647,0l0,1zm117.58647,0l10.58648,0l0,3l7,-3.5l-7,-3.5l0,3l-10.58648,0l0,1z" fill="#A5ABB6" class="outline"/>
    <text id="svg_271" font-family="sans-serif" transform="rotate(180 397.47021484375,259.39385986328125) " y="262.39388" x="397.4702" fill="#000000" font-size="8px" text-anchor="middle">WasDerivedFrom-path-named</text>
   </g>
   <g id="svg_272" transform="rotate(500.2767333984375 226.76458740234375,635.672119140625) " class="relationship">
    <path id="svg_273" d="m251.76459,636.17209l12.25534,0l0,-1l-12.25534,0l0,1zm119.25534,0l12.25534,0l0,3l7,-3.5l-7,-3.5l0,3l-12.25534,0l0,1z" fill="#A5ABB6" class="outline"/>
    <text id="svg_274" font-family="sans-serif" transform="rotate(180 317.51992797851557,635.672119140625) " y="638.67209" x="317.51993" fill="#000000" font-size="8px" text-anchor="middle">WasDerivedFrom-path-named</text>
   </g>
   <g id="svg_275" transform="rotate(498.5802307128906 302.78753662109364,787.4843749999999) " class="relationship">
    <path id="svg_276" d="m327.78754,787.98441l18.41028,0l0,-1l-18.41028,0l0,1zm125.41028,0l18.41028,0l0,3l7,-3.5l-7,-3.5l0,3l-18.41028,0l0,1z" fill="#A5ABB6" class="outline"/>
    <text id="svg_277" font-family="sans-serif" transform="rotate(180 399.69781494140625,787.484375) " y="790.48441" x="399.69782" fill="#000000" font-size="8px" text-anchor="middle">WasDerivedFrom-path-named</text>
   </g>
   <g id="svg_278" transform="rotate(480.2530212402344 747.6904907226562,272.09503173828114) " class="relationship">
    <path id="svg_279" d="m772.69048,272.59505l39.26989,0l0,-1l-39.26989,0l0,1zm156.26989,0l39.26989,0l0,3l7,-3.5l-7,-3.5l0,3l-39.26989,0l0,1z" fill="#A5ABB6" class="outline"/>
    <text id="svg_280" font-family="sans-serif" transform="rotate(180 870.4603881835938,272.09503173828125) " y="275.09505" x="870.46037" fill="#000000" font-size="8px" text-anchor="middle">WasGeneratedBy-task-write_ioctl</text>
   </g>
   <g id="svg_281" transform="rotate(218.9864501953125 906.0366821289062,400.259246826172) " class="relationship">
    <path id="svg_282" d="m930.05541,407.21269l0.25882,-0.96593a295.96108,295.96108 0 0 0 27.36213,5.96008l-0.16637,0.98606a296.96108,296.96108 0 0 1 -27.45458,-5.98021zm121.21571,6.78729l-0.14936,-0.98878a295.96108,295.96108 0 0 0 27.46068,-5.48817l-0.72646,-2.91072l7.6392,1.70076l-5.94413,5.09091l-0.72646,-2.91072a296.96108,296.96108 0 0 1 -27.55347,5.50672" fill="#A5ABB6" class="outline"/>
    <text id="svg_283" font-family="sans-serif" transform="rotate(180 1004.36279296875,416.8204040527344) " y="419.82041" x="1004.3628" fill="#000000" font-size="8px" text-anchor="middle">Used-socket-receive_msg</text>
   </g>
   <g id="svg_284" transform="rotate(218.9864501953125 906.0366821289062,400.259246826172) " class="relationship">
    <path id="svg_285" d="m930.05541,393.30581l0.25882,0.96593a295.96108,295.96108 0 0 1 32.2909,-6.74897l-0.14971,-0.98873a296.96108,296.96108 0 0 0 -32.40001,6.77177zm116.25739,-7.49359l-0.13267,0.99116a295.96108,295.96108 0 0 1 32.40231,6.19209l-0.72646,2.91072l7.6392,-1.70076l-5.94413,-5.09091l-0.72646,2.91072a296.96108,296.96108 0 0 0 -32.51179,-6.21302" fill="#A5ABB6" class="outline"/>
    <text id="svg_286" font-family="sans-serif" transform="rotate(180 1004.36279296875,383.6980895996094) " y="386.69809" x="1004.3628" fill="#000000" font-size="8px" text-anchor="middle">Used-socket-read_ioctl</text>
   </g>
   <g id="svg_287" transform="rotate(522.5111694335938 906.0366821289062,400.2592468261719) " class="relationship">
    <path id="svg_288" d="m931.03667,400.75925l57.7106,0l0,-1l-57.7106,0l0,1zm184.7106,0l57.71059,0l0,3l7,-3.5l-7,-3.5l0,3l-57.71059,0l0,1z" fill="#A5ABB6" class="outline"/>
    <text id="svg_289" font-family="sans-serif" transform="rotate(180 1052.247314453125,400.2592468261719) " y="403.25925" x="1052.24726" fill="#000000" font-size="8px" text-anchor="middle">WasInformedBy-task-version_activity</text>
   </g>
   <g id="svg_290" transform="rotate(384.2384338378906 906.0366821289062,400.25924682617193) " class="relationship">
    <path id="svg_291" d="m931.03667,400.75925l21.38389,0l0,-1l-21.38389,0l0,1zm153.38389,0l21.38389,0l0,3l7,-3.5l-7,-3.5l0,3l-21.38389,0l0,1z" fill="#A5ABB6" class="outline"/>
    <text id="svg_292" font-family="sans-serif" y="403.25925" x="1018.42056" fill="#000000" font-size="8px" text-anchor="middle">Used-process_memory-memory_read</text>
   </g>
   <g id="svg_293" transform="rotate(417.6622619628906 644.5631103515624,109.20129394531253) " class="relationship">
    <path id="svg_294" d="m669.56311,109.70129l15.39713,0l0,-1l-15.39713,0l0,1zm120.39713,0l15.39714,0l0,3l7,-3.5l-7,-3.5l0,3l-15.39714,0l0,1z" fill="#A5ABB6" class="outline"/>
    <text id="svg_295" font-family="sans-serif" y="112.20129" x="737.46024" fill="#000000" font-size="8px" text-anchor="middle">WasDerivedFrom-socket-free</text>
   </g>
   <g id="svg_296" transform="rotate(251.04901123046875 1303.48095703125,949.8110961914062) " class="relationship">
    <path id="svg_297" d="m1328.4809,950.3111l14.36191,0l0,-1l-14.36191,0l0,1zm147.36191,0l14.3619,0l0,3l7,-3.5l-7,-3.5l0,3l-14.3619,0l0,1z" fill="#A5ABB6" class="outline"/>
    <text id="svg_298" font-family="sans-serif" transform="rotate(180 1409.3427734375,949.8110961914062) " y="952.8111" x="1409.3428" fill="#000000" font-size="8px" text-anchor="middle">WasDerivedFrom-socket-send_packet</text>
   </g>
   <g id="svg_299" transform="rotate(226.5396270751953 1024.219482421875,921.905517578125) " class="relationship">
    <path id="svg_300" d="m1049.21947,922.40555l45.46587,0l0,-1l-45.46587,0l0,1zm178.46587,0l45.46587,0l0,3l7,-3.5l-7,-3.5l0,3l-45.46587,0l0,1z" fill="#A5ABB6" class="outline"/>
    <text id="svg_301" font-family="sans-serif" transform="rotate(180 1161.185302734375,921.9055175781251) " y="924.90555" x="1161.18534" fill="#000000" font-size="8px" text-anchor="middle">WasDerivedFrom-socket-send_packet</text>
   </g>
   <g id="svg_302" transform="rotate(376.8594055175781 728.3224487304694,882.5035400390626) " class="relationship">
    <path id="svg_303" d="m753.32246,883.00351l16.94644,0l0,-1l-16.94644,0l0,1zm149.94644,0l16.94644,0l0,3l7,-3.5l-7,-3.5l0,3l-16.94644,0l0,1z" fill="#A5ABB6" class="outline"/>
    <text id="svg_304" font-family="sans-serif" y="885.50351" x="836.7689" fill="#000000" font-size="8px" text-anchor="middle">WasDerivedFrom-socket-send_packet</text>
   </g>
   <g id="svg_305" transform="rotate(352.1477355957031 735.1360473632807,976.0486450195315) " class="relationship">
    <path id="svg_306" d="m760.13603,976.54865l23.70993,0l0,-1l-23.70993,0l0,1zm128.70993,0l23.70992,0l0,3l7,-3.5l-7,-3.5l0,3l-23.70992,0l0,1z" fill="#A5ABB6" class="outline"/>
    <text id="svg_307" font-family="sans-serif" y="979.04865" x="836.34596" fill="#000000" font-size="8px" text-anchor="middle">WasDerivedFrom-socket-free</text>
   </g>
   <g id="svg_308" transform="rotate(227.43438720703125 1279.440185546875,671.8671875000001) " class="relationship">
    <path id="svg_309" d="m1304.44019,672.36722l2.2953,0l0,-1l-2.2953,0l0,1zm180.2953,0l2.29529,0l0,3l7,-3.5l-7,-3.5l0,3l-2.29529,0l0,1z" fill="#A5ABB6" class="outline"/>
    <text id="svg_310" font-family="sans-serif" transform="rotate(180 1395.7354736328125,671.8671875) " y="674.86722" x="1395.73548" fill="#000000" font-size="8px" text-anchor="middle">WasDerivedFrom-process_memory-terminate_proc</text>
   </g>
  </g>
  <g id="svg_311" class="layer nodes">
   <g id="svg_312" class="node">
    <circle id="svg_313" stroke-width="2px" stroke="#f36924" fill="#F79767" r="25" cy="621.29231" cx="1705.28796" class="outline"/>
    <text id="svg_314" x="1705.28796" y="621.29231" fill="#FFFFFF" font-size="25" font-family="sans-serif" text-anchor="middle"/>
    <text id="svg_315" x="1705.28796" font-family="sans-serif" fill="#FFFFFF" font-size="10px" y="626.29231" text-anchor="middle">machine</text>
   </g>
   <g id="svg_316" class="node">
    <circle id="svg_317" stroke-width="2px" stroke="#f36924" fill="#F79767" r="25" cy="742.94284" cx="1232.44833" class="outline"/>
    <text id="svg_318" x="1232.44833" y="742.94284" fill="#FFFFFF" font-size="25" font-family="sans-serif" text-anchor="middle"/>
    <text id="svg_319" x="1232.44833" font-family="sans-serif" fill="#FFFFFF" font-size="10px" y="747.94284" text-anchor="middle">socket</text>
   </g>
   <g id="svg_320" class="node">
    <circle id="svg_321" stroke-width="2px" stroke="#f36924" fill="#F79767" r="25" cy="717.99117" cx="830.97979" class="outline"/>
    <text id="svg_322" x="830.97979" y="717.99117" fill="#FFFFFF" font-size="25" font-family="sans-serif" text-anchor="middle"/>
    <text id="svg_323" x="830.97979" font-family="sans-serif" fill="#FFFFFF" font-size="10px" y="722.99117" text-anchor="middle">socket</text>
   </g>
   <g id="svg_324" class="node">
    <circle id="svg_325" stroke-width="2px" stroke="#f36924" fill="#F79767" r="25" cy="860.19009" cx="1092.74185" class="outline"/>
    <text id="svg_326" x="1092.74185" y="860.19009" fill="#FFFFFF" font-size="25" font-family="sans-serif" text-anchor="middle"/>
    <text id="svg_327" x="1092.74185" font-family="sans-serif" fill="#FFFFFF" font-size="10px" y="865.19009" text-anchor="middle">packet</text>
   </g>
   <g id="svg_328" class="node">
    <circle id="svg_329" stroke-width="2px" stroke="#f36924" fill="#F79767" r="25" cy="947.43784" cx="942.59229" class="outline"/>
    <text id="svg_330" x="942.59229" y="947.43784" fill="#FFFFFF" font-size="25" font-family="sans-serif" text-anchor="middle"/>
    <text id="svg_331" x="942.59229" font-family="sans-serif" fill="#FFFFFF" font-size="10px" y="952.43784" text-anchor="middle">socket</text>
   </g>
   <g id="svg_332" class="node">
    <circle id="svg_333" stroke-width="2px" stroke="#f36924" fill="#F79767" r="25" cy="1169.18042" cx="897.91975" class="outline"/>
    <text id="svg_334" x="897.91975" y="1169.18042" fill="#FFFFFF" font-size="25" font-family="sans-serif" text-anchor="middle"/>
    <text id="svg_335" x="897.91975" font-family="sans-serif" fill="#FFFFFF" font-size="10px" y="1174.18042" text-anchor="middle">packet</text>
   </g>
   <g id="svg_336" class="node">
    <circle id="svg_337" stroke-width="2px" stroke="#f36924" fill="#F79767" r="25" cy="1081.50879" cx="789.63468" class="outline"/>
    <text id="svg_338" x="789.63468" y="1081.50879" fill="#FFFFFF" font-size="25" font-family="sans-serif" text-anchor="middle"/>
    <text id="svg_339" x="789.63468" font-family="sans-serif" fill="#FFFFFF" font-size="10px" y="1086.50879" text-anchor="middle">packet</text>
   </g>
   <g id="svg_340" class="node">
    <circle id="svg_341" stroke-width="2px" stroke="#f36924" fill="#F79767" r="25" cy="648.75394" cx="1063.73248" class="outline"/>
    <text id="svg_342" x="1063.73248" y="648.75394" fill="#FFFFFF" font-size="25" font-family="sans-serif" text-anchor="middle"/>
    <text id="svg_343" x="1063.73248" font-family="sans-serif" fill="#FFFFFF" font-size="10px" y="653.75394" text-anchor="middle">task</text>
   </g>
   <g id="svg_344" class="node">
    <circle id="svg_345" stroke-width="2px" stroke="#f36924" fill="#F79767" r="25" cy="836.64954" cx="1202.7312" class="outline"/>
    <text id="svg_346" x="1202.7312" y="836.64954" fill="#FFFFFF" font-size="25" font-family="sans-serif" text-anchor="middle"/>
    <text id="svg_347" x="1202.7312" font-family="sans-serif" fill="#FFFFFF" font-size="10px" y="841.64954" text-anchor="middle">task</text>
   </g>
   <g id="svg_348" class="node">
    <circle id="svg_349" stroke-width="2px" stroke="#f36924" fill="#F79767" r="25" cy="616.4749" cx="1359.52435" class="outline"/>
    <text id="svg_350" x="1359.52435" y="616.4749" fill="#FFFFFF" font-size="25" font-family="sans-serif" text-anchor="middle"/>
    <text id="svg_351" x="1359.52435" font-family="sans-serif" fill="#FFFFFF" font-size="10px" y="621.4749" text-anchor="middle">process…</text>
   </g>
   <g id="svg_352" class="node">
    <circle id="svg_353" stroke-width="2px" stroke="#f36924" fill="#F79767" r="25" cy="698.02357" cx="1485.33545" class="outline"/>
    <text id="svg_354" x="1485.33545" y="698.02357" fill="#FFFFFF" font-size="25" font-family="sans-serif" text-anchor="middle"/>
    <text id="svg_355" x="1485.33545" font-family="sans-serif" fill="#FFFFFF" font-size="10px" y="703.02357" text-anchor="middle">task</text>
   </g>
   <g id="svg_356" class="node">
    <circle id="svg_357" stroke-width="2px" stroke="#f36924" fill="#F79767" r="25" cy="514.90411" cx="1599.672" class="outline"/>
    <text id="svg_358" x="1599.672" y="514.90411" fill="#FFFFFF" font-size="25" font-family="sans-serif" text-anchor="middle"/>
    <text id="svg_359" x="1599.672" font-family="sans-serif" fill="#FFFFFF" font-size="10px" y="519.90411" text-anchor="middle">path</text>
   </g>
   <g id="svg_360" class="node">
    <circle id="svg_361" stroke-width="2px" stroke="#f36924" fill="#F79767" r="25" cy="502.12968" cx="1338.55707" class="outline"/>
    <text id="svg_362" x="1338.55707" y="502.12968" fill="#FFFFFF" font-size="25" font-family="sans-serif" text-anchor="middle"/>
    <text id="svg_363" x="1338.55707" font-family="sans-serif" fill="#FFFFFF" font-size="10px" y="507.12968" text-anchor="middle">task</text>
   </g>
   <g id="svg_364" class="node">
    <circle id="svg_365" stroke-width="2px" stroke="#f36924" fill="#F79767" r="25" cy="372.30144" cx="1496.15869" class="outline"/>
    <text id="svg_366" x="1496.15869" y="372.30144" fill="#FFFFFF" font-size="25" font-family="sans-serif" text-anchor="middle"/>
    <text id="svg_367" x="1496.15869" font-family="sans-serif" fill="#FFFFFF" font-size="10px" y="377.30144" text-anchor="middle">file</text>
   </g>
   <g id="svg_368" class="node">
    <circle id="svg_369" stroke-width="2px" stroke="#f36924" fill="#F79767" r="25" cy="495.40798" cx="1117.37296" class="outline"/>
    <text id="svg_370" x="1117.37296" y="495.40798" fill="#FFFFFF" font-size="25" font-family="sans-serif" text-anchor="middle"/>
    <text id="svg_371" x="1117.37296" font-family="sans-serif" fill="#FFFFFF" font-size="10px" y="500.40798" text-anchor="middle">process…</text>
   </g>
   <g id="svg_372" class="node">
    <circle id="svg_373" stroke-width="2px" stroke="#f36924" fill="#F79767" r="25" cy="372.57496" cx="1178.23868" class="outline"/>
    <text id="svg_374" x="1178.23868" y="372.57496" fill="#FFFFFF" font-size="25" font-family="sans-serif" text-anchor="middle"/>
    <text id="svg_375" x="1178.23868" font-family="sans-serif" fill="#FFFFFF" font-size="10px" y="377.57496" text-anchor="middle">task</text>
   </g>
   <g id="svg_376" class="node">
    <circle id="svg_377" stroke-width="2px" stroke="#f36924" fill="#F79767" r="25" cy="170.74133" cx="1224.57498" class="outline"/>
    <text id="svg_378" x="1224.57498" y="170.74133" fill="#FFFFFF" font-size="25" font-family="sans-serif" text-anchor="middle"/>
    <text id="svg_379" x="1224.57498" font-family="sans-serif" fill="#FFFFFF" font-size="10px" y="175.74133" text-anchor="middle">file</text>
   </g>
   <g id="svg_380" class="node">
    <circle id="svg_381" stroke-width="2px" stroke="#f36924" fill="#F79767" r="25" cy="25" cx="1354.09448" class="outline"/>
    <text id="svg_382" x="1354.09448" y="25" fill="#FFFFFF" font-size="25" font-family="sans-serif" text-anchor="middle"/>
    <text id="svg_383" x="1354.09448" font-family="sans-serif" fill="#FFFFFF" font-size="10px" y="30" text-anchor="middle">path</text>
   </g>
   <g id="svg_384" class="node">
    <circle id="svg_385" stroke-width="2px" stroke="#f36924" fill="#F79767" r="25" cy="249.89522" cx="1644.15863" class="outline"/>
    <text id="svg_386" x="1644.15863" y="249.89522" fill="#FFFFFF" font-size="25" font-family="sans-serif" text-anchor="middle"/>
    <text id="svg_387" x="1644.15863" font-family="sans-serif" fill="#FFFFFF" font-size="10px" y="254.89522" text-anchor="middle">path</text>
   </g>
   <g id="svg_388" class="node">
    <circle id="svg_389" stroke-width="2px" stroke="#f36924" fill="#F79767" r="25" cy="222.40459" cx="1407.95056" class="outline"/>
    <text id="svg_390" x="1407.95056" y="222.40459" fill="#FFFFFF" font-size="25" font-family="sans-serif" text-anchor="middle"/>
    <text id="svg_391" x="1407.95056" font-family="sans-serif" fill="#FFFFFF" font-size="10px" y="227.40459" text-anchor="middle">socket</text>
   </g>
   <g id="svg_392" class="node">
    <circle id="svg_393" stroke-width="2px" stroke="#f36924" fill="#F79767" r="25" cy="42.60172" cx="1512.69629" class="outline"/>
    <text id="svg_394" x="1512.69629" y="42.60172" fill="#FFFFFF" font-size="25" font-family="sans-serif" text-anchor="middle"/>
    <text id="svg_395" x="1512.69629" font-family="sans-serif" fill="#FFFFFF" font-size="10px" y="47.60172" text-anchor="middle">address</text>
   </g>
   <g id="svg_396" class="node">
    <circle id="svg_397" stroke-width="2px" stroke="#f36924" fill="#F79767" r="25" cy="145.91714" cx="1599.06354" class="outline"/>
    <text id="svg_398" x="1599.06354" y="145.91714" fill="#FFFFFF" font-size="25" font-family="sans-serif" text-anchor="middle"/>
    <text id="svg_399" x="1599.06354" font-family="sans-serif" fill="#FFFFFF" font-size="10px" y="150.91714" text-anchor="middle">socket</text>
   </g>
   <g id="svg_400" class="node">
    <circle id="svg_401" stroke-width="2px" stroke="#f36924" fill="#F79767" r="25" cy="251.82411" cx="997.73291" class="outline"/>
    <text id="svg_402" x="997.73291" y="251.82411" fill="#FFFFFF" font-size="25" font-family="sans-serif" text-anchor="middle"/>
    <text id="svg_403" x="997.73291" font-family="sans-serif" fill="#FFFFFF" font-size="10px" y="256.82411" text-anchor="middle">socket</text>
   </g>
   <g id="svg_404" class="node">
    <circle id="svg_405" stroke-width="2px" stroke="#f36924" fill="#F79767" r="25" cy="70.84531" cx="1085.09384" class="outline"/>
    <text id="svg_406" x="1085.09384" y="70.84531" fill="#FFFFFF" font-size="25" font-family="sans-serif" text-anchor="middle"/>
    <text id="svg_407" x="1085.09384" font-family="sans-serif" fill="#FFFFFF" font-size="10px" y="75.84531" text-anchor="middle">address</text>
   </g>
   <g id="svg_408" class="node">
    <circle id="svg_409" stroke-width="2px" stroke="#f36924" fill="#F79767" r="25" cy="116.29922" cx="935.2764" class="outline"/>
    <text id="svg_410" x="935.2764" y="116.29922" fill="#FFFFFF" font-size="25" font-family="sans-serif" text-anchor="middle"/>
    <text id="svg_411" x="935.2764" font-family="sans-serif" fill="#FFFFFF" font-size="10px" y="121.29922" text-anchor="middle">socket</text>
   </g>
   <g id="svg_412" class="node">
    <circle id="svg_413" stroke-width="2px" stroke="#f36924" fill="#F79767" r="25" cy="490.24118" cx="620.45602" class="outline"/>
    <text id="svg_414" x="620.45602" y="490.24118" fill="#FFFFFF" font-size="25" font-family="sans-serif" text-anchor="middle"/>
    <text id="svg_415" x="620.45602" font-family="sans-serif" fill="#FFFFFF" font-size="10px" y="495.24118" text-anchor="middle">task</text>
   </g>
   <g id="svg_416" class="node">
    <circle id="svg_417" stroke-width="2px" stroke="#f36924" fill="#F79767" r="25" cy="248.8764" cx="544.21474" class="outline"/>
    <text id="svg_418" x="544.21474" y="248.8764" fill="#FFFFFF" font-size="25" font-family="sans-serif" text-anchor="middle"/>
    <text id="svg_419" x="544.21474" font-family="sans-serif" fill="#FFFFFF" font-size="10px" y="253.8764" text-anchor="middle">file</text>
   </g>
   <g id="svg_420" class="node">
    <circle id="svg_421" stroke-width="2px" stroke="#f36924" fill="#F79767" r="25" cy="146.14319" cx="351.51959" class="outline"/>
    <text id="svg_422" x="351.51959" y="146.14319" fill="#FFFFFF" font-size="25" font-family="sans-serif" text-anchor="middle"/>
    <text id="svg_423" x="351.51959" font-family="sans-serif" fill="#FFFFFF" font-size="10px" y="151.14319" text-anchor="middle">path</text>
   </g>
   <g id="svg_424" class="node">
    <circle id="svg_425" stroke-width="2px" stroke="#f36924" fill="#F79767" r="25" cy="878.85803" cx="547.72864" class="outline"/>
    <text id="svg_426" x="547.72864" y="878.85803" fill="#FFFFFF" font-size="25" font-family="sans-serif" text-anchor="middle"/>
    <text id="svg_427" x="547.72864" font-family="sans-serif" fill="#FFFFFF" font-size="10px" y="883.85803" text-anchor="middle">file</text>
   </g>
   <g id="svg_428" class="node">
    <circle id="svg_429" stroke-width="2px" stroke="#f36924" fill="#F79767" r="25" cy="996.71509" cx="390.59198" class="outline"/>
    <text id="svg_430" x="390.59198" y="996.71509" fill="#FFFFFF" font-size="25" font-family="sans-serif" text-anchor="middle"/>
    <text id="svg_431" x="390.59198" font-family="sans-serif" fill="#FFFFFF" font-size="10px" y="1001.71509" text-anchor="middle">path</text>
   </g>
   <g id="svg_432" class="node">
    <circle id="svg_433" stroke-width="2px" stroke="#f36924" fill="#F79767" r="25" cy="503.0784" cx="205.46173" class="outline"/>
    <text id="svg_434" x="205.46173" y="503.0784" fill="#FFFFFF" font-size="25" font-family="sans-serif" text-anchor="middle"/>
    <text id="svg_435" x="205.46173" font-family="sans-serif" fill="#FFFFFF" font-size="10px" y="508.0784" text-anchor="middle">file</text>
   </g>
   <g id="svg_436" class="node">
    <circle id="svg_437" stroke-width="2px" stroke="#f36924" fill="#F79767" r="25" cy="515.35244" cx="25" class="outline"/>
    <text id="svg_438" x="25" y="515.35244" fill="#FFFFFF" font-size="25" font-family="sans-serif" text-anchor="middle"/>
    <text id="svg_439" x="25" font-family="sans-serif" fill="#FFFFFF" font-size="10px" y="520.35244" text-anchor="middle">path</text>
   </g>
   <g id="svg_440" class="node">
    <circle id="svg_441" stroke-width="2px" stroke="#f36924" fill="#F79767" r="25" cy="259.39388" cx="308.38373" class="outline"/>
    <text id="svg_442" x="308.38373" y="259.39388" fill="#FFFFFF" font-size="25" font-family="sans-serif" text-anchor="middle"/>
    <text id="svg_443" x="308.38373" font-family="sans-serif" fill="#FFFFFF" font-size="10px" y="264.39388" text-anchor="middle">file</text>
   </g>
   <g id="svg_444" class="node">
    <circle id="svg_445" stroke-width="2px" stroke="#f36924" fill="#F79767" r="25" cy="194.16382" cx="135.08032" class="outline"/>
    <text id="svg_446" x="135.08032" y="194.16382" fill="#FFFFFF" font-size="25" font-family="sans-serif" text-anchor="middle"/>
    <text id="svg_447" x="135.08032" font-family="sans-serif" fill="#FFFFFF" font-size="10px" y="199.16382" text-anchor="middle">path</text>
   </g>
   <g id="svg_448" class="node">
    <circle id="svg_449" stroke-width="2px" stroke="#f36924" fill="#F79767" r="25" cy="635.67209" cx="226.76459" class="outline"/>
    <text id="svg_450" x="226.76459" y="635.67209" fill="#FFFFFF" font-size="25" font-family="sans-serif" text-anchor="middle"/>
    <text id="svg_451" x="226.76459" font-family="sans-serif" fill="#FFFFFF" font-size="10px" y="640.67209" text-anchor="middle">file</text>
   </g>
   <g id="svg_452" class="node">
    <circle id="svg_453" stroke-width="2px" stroke="#f36924" fill="#F79767" r="25" cy="756.14551" cx="81.77344" class="outline"/>
    <text id="svg_454" x="81.77344" y="756.14551" fill="#FFFFFF" font-size="25" font-family="sans-serif" text-anchor="middle"/>
    <text id="svg_455" x="81.77344" font-family="sans-serif" fill="#FFFFFF" font-size="10px" y="761.14551" text-anchor="middle">path</text>
   </g>
   <g id="svg_456" class="node">
    <circle id="svg_457" stroke-width="2px" stroke="#f36924" fill="#F79767" r="25" cy="787.48441" cx="302.78754" class="outline"/>
    <text id="svg_458" x="302.78754" y="787.48441" fill="#FFFFFF" font-size="25" font-family="sans-serif" text-anchor="middle"/>
    <text id="svg_459" x="302.78754" font-family="sans-serif" fill="#FFFFFF" font-size="10px" y="792.48441" text-anchor="middle">file</text>
   </g>
   <g id="svg_460" class="node">
    <circle id="svg_461" stroke-width="2px" stroke="#f36924" fill="#F79767" r="25" cy="920.34137" cx="152.19562" class="outline"/>
    <text id="svg_462" x="152.19562" y="920.34137" fill="#FFFFFF" font-size="25" font-family="sans-serif" text-anchor="middle"/>
    <text id="svg_463" x="152.19562" font-family="sans-serif" fill="#FFFFFF" font-size="10px" y="925.34137" text-anchor="middle">path</text>
   </g>
   <g id="svg_464" class="node">
    <circle id="svg_465" stroke-width="2px" stroke="#f36924" fill="#F79767" r="25" cy="272.09505" cx="747.69048" class="outline"/>
    <text id="svg_466" x="747.69048" y="272.09505" fill="#FFFFFF" font-size="25" font-family="sans-serif" text-anchor="middle"/>
    <text id="svg_467" x="747.69048" font-family="sans-serif" fill="#FFFFFF" font-size="10px" y="277.09505" text-anchor="middle">socket</text>
   </g>
   <g id="svg_468" class="node">
    <circle id="svg_469" stroke-width="2px" stroke="#f36924" fill="#F79767" r="25" cy="400.25925" cx="906.03667" class="outline"/>
    <text id="svg_470" x="906.03667" y="400.25925" fill="#FFFFFF" font-size="25" font-family="sans-serif" text-anchor="middle"/>
    <text id="svg_471" x="906.03667" font-family="sans-serif" fill="#FFFFFF" font-size="10px" y="405.25925" text-anchor="middle">task</text>
   </g>
   <g id="svg_472" class="node">
    <circle id="svg_473" stroke-width="2px" stroke="#f36924" fill="#F79767" r="25" cy="109.20129" cx="644.56311" class="outline"/>
    <text id="svg_474" x="644.56311" y="109.20129" fill="#FFFFFF" font-size="25" font-family="sans-serif" text-anchor="middle"/>
    <text id="svg_475" x="644.56311" font-family="sans-serif" fill="#FFFFFF" font-size="10px" y="114.20129" text-anchor="middle">socket</text>
   </g>
   <g id="svg_476" class="node">
    <circle id="svg_477" stroke-width="2px" stroke="#f36924" fill="#F79767" r="25" cy="863.42383" cx="1412.54962" class="outline"/>
    <text id="svg_478" x="1412.54962" y="863.42383" fill="#FFFFFF" font-size="25" font-family="sans-serif" text-anchor="middle"/>
    <text id="svg_479" x="1412.54962" font-family="sans-serif" fill="#FFFFFF" font-size="10px" y="868.42383" text-anchor="middle">address</text>
   </g>
   <g id="svg_480" class="node">
    <circle id="svg_481" stroke-width="2px" stroke="#f36924" fill="#F79767" r="25" cy="949.8111" cx="1303.4809" class="outline"/>
    <text id="svg_482" x="1303.4809" y="949.8111" fill="#FFFFFF" font-size="25" font-family="sans-serif" text-anchor="middle"/>
    <text id="svg_483" x="1303.4809" font-family="sans-serif" fill="#FFFFFF" font-size="10px" y="954.8111" text-anchor="middle">packet</text>
   </g>
   <g id="svg_484" class="node">
    <circle id="svg_485" stroke-width="2px" stroke="#f36924" fill="#F79767" r="25" cy="921.90555" cx="1024.21947" class="outline"/>
    <text id="svg_486" x="1024.21947" y="921.90555" fill="#FFFFFF" font-size="25" font-family="sans-serif" text-anchor="middle"/>
    <text id="svg_487" x="1024.21947" font-family="sans-serif" fill="#FFFFFF" font-size="10px" y="926.90555" text-anchor="middle">packet</text>
   </g>
   <g id="svg_488" class="node">
    <circle id="svg_489" stroke-width="2px" stroke="#f36924" fill="#F79767" r="25" cy="882.50351" cx="728.32246" class="outline"/>
    <text id="svg_490" x="728.32246" y="882.50351" fill="#FFFFFF" font-size="25" font-family="sans-serif" text-anchor="middle"/>
    <text id="svg_491" x="728.32246" font-family="sans-serif" fill="#FFFFFF" font-size="10px" y="887.50351" text-anchor="middle">packet</text>
   </g>
   <g id="svg_492" class="node">
    <circle id="svg_493" stroke-width="2px" stroke="#f36924" fill="#F79767" r="25" cy="976.04865" cx="735.13603" class="outline"/>
    <text id="svg_494" x="735.13603" y="976.04865" fill="#FFFFFF" font-size="25" font-family="sans-serif" text-anchor="middle"/>
    <text id="svg_495" x="735.13603" font-family="sans-serif" fill="#FFFFFF" font-size="10px" y="981.04865" text-anchor="middle">socket</text>
   </g>
   <g id="svg_496" class="node">
    <circle id="svg_497" stroke-width="2px" stroke="#f36924" fill="#F79767" r="25" cy="671.86722" cx="1279.44019" class="outline"/>
    <text id="svg_498" x="1279.44019" y="671.86722" fill="#FFFFFF" font-size="25" font-family="sans-serif" text-anchor="middle"/>
    <text id="svg_499" x="1279.44019" font-family="sans-serif" fill="#FFFFFF" font-size="10px" y="676.86722" text-anchor="middle">process…</text>
   </g>
  </g>
  <text style="cursor: move;" font-weight="bold" xml:space="preserve" text-anchor="start" font-family="Helvetica, Arial, sans-serif" font-size="10" id="svg_501" y="555.33586" x="21.49292" stroke-width="0" stroke="#000" fill="#0000ff">/usr/lib64/libnss_dns-2.31.so</text>
  <text font-weight="bold" xml:space="preserve" text-anchor="start" font-family="Helvetica, Arial, sans-serif" font-size="10" id="svg_502" y="796.81115" x="79.47755" stroke-width="0" stroke="#000" fill="#0000ff">/usr/lib64/libnss_files-2.31.so</text>
  <text font-weight="bold" xml:space="preserve" text-anchor="start" font-family="Helvetica, Arial, sans-serif" font-size="10" id="svg_503" y="479.25928" x="1507.40756" stroke-width="0" stroke="#000" fill="#0000bf">:/home/vagrant/examples/provenance/tcp-client.o</text>
  <text font-weight="bold" xml:space="preserve" text-anchor="start" font-family="Helvetica, Arial, sans-serif" font-size="10" id="svg_504" y="215.55555" x="1618.51869" stroke-width="0" stroke="#000" fill="#0000bf">/etc/host.conf</text>
  <text style="cursor: move;" font-weight="bold" xml:space="preserve" text-anchor="start" font-family="Helvetica, Arial, sans-serif" font-size="10" id="svg_505" y="69.56541" x="1349.56895" stroke-width="0" stroke="#000" fill="#0000ff">/etc/resolv.conf</text>
  <text style="cursor: move;" font-weight="bold" stroke="#000" xml:space="preserve" text-anchor="start" font-family="Helvetica, Arial, sans-serif" font-size="10" id="svg_506" y="107.82639" x="307.82693" stroke-width="0" fill="#0000ff">/etc/hosts</text>
  <text style="cursor: move;" font-weight="bold" stroke="#000" xml:space="preserve" text-anchor="start" font-family="Helvetica, Arial, sans-serif" font-size="10" id="svg_507" y="153.0439" x="87.82632" stroke-opacity="null" stroke-width="0" fill="#0000ff">/etc/ld.so.cache</text>
  <text style="cursor: move;" font-weight="bold" xml:space="preserve" text-anchor="start" font-family="Helvetica, Arial, sans-serif" font-size="10" id="svg_508" y="1041.74202" x="380.87061" fill-opacity="null" stroke-opacity="null" stroke-width="0" stroke="#000" fill="#0000ff">/etc/nsswitch.conf</text>
  <text font-weight="bold" xml:space="preserve" text-anchor="start" font-family="Helvetica, Arial, sans-serif" font-size="10" id="svg_509" y="961.7418" x="128.696" fill-opacity="null" stroke-opacity="null" stroke-width="0" stroke="#000" fill="#0000ff">/usr/lib64/libresolv-2.31.so</text>
 </g>
</svg>