<?xml version="1.0" encoding="UTF-8" standalone="no"?>
<!DOCTYPE svg PUBLIC "-//W3C//DTD SVG 1.1//EN" "http://www.w3.org/Graphics/SVG/1.1/DTD/svg11.dtd">
<!-- Generated by graphviz version 2.43.0 (0)
 -->
<!-- Pages: 1 -->
<svg width="2212pt" height="188pt" viewBox="0.00 0.00 2211.63 188.00" xmlns="http://www.w3.org/2000/svg" xmlns:xlink="http://www.w3.org/1999/xlink">
<g id="graph0" class="graph" transform="scale(1 1) rotate(0) translate(4 184)">
<polygon fill="white" stroke="transparent" points="-4,4 -4,-184 2207.63,-184 2207.63,4 -4,4"/>
<!-- ccsetup574 -->
<g id="node1" class="node">
<title>ccsetup574</title>
<polygon fill="#b23aee" stroke="#b23aee" points="487.05,-108 389.05,-108 389.05,-72 487.05,-72 487.05,-108"/>
<text text-anchor="middle" x="438.05" y="-86.3" font-family="Times,serif" font-size="14.00">ccsetup574</text>
</g>
<!-- 3,568 -->
<g id="node2" class="node">
<title>3,568</title>
<ellipse fill="#76ee00" stroke="#76ee00" cx="37.05" cy="-18" rx="37.09" ry="18"/>
<text text-anchor="middle" x="37.05" y="-14.3" font-family="Times,serif" font-size="14.00">3,568</text>
</g>
<!-- ccsetup574&#45;&gt;3,568 -->
<g id="edge1" class="edge">
<title>ccsetup574-&gt;3,568</title>
<path fill="none" stroke="black" d="M389,-85.31C318.45,-78.95 185.14,-63.86 75.05,-36 73.6,-35.63 72.14,-35.24 70.67,-34.83"/>
<polygon fill="black" stroke="black" points="71.59,-31.45 61,-31.82 69.51,-38.13 71.59,-31.45"/>
<text text-anchor="middle" x="206.67" y="-69.06" font-family="Times,serif" font-size="14.00">Stop</text>
</g>
<!-- CCUpdate -->
<g id="node3" class="node">
<title>CCUpdate</title>
<ellipse fill="#b2dfee" stroke="#b2dfee" cx="151.05" cy="-18" rx="58.49" ry="18"/>
<text text-anchor="middle" x="151.05" y="-14.3" font-family="Times,serif" font-size="14.00">CCUpdate</text>
</g>
<!-- ccsetup574&#45;&gt;CCUpdate -->
<g id="edge2" class="edge">
<title>ccsetup574-&gt;CCUpdate</title>
<path fill="none" stroke="black" d="M388.64,-77.28C344.02,-66.65 276.59,-50.48 218.05,-36 213.67,-34.92 209.13,-33.79 204.58,-32.64"/>
<polygon fill="black" stroke="black" points="205.19,-29.19 194.64,-30.14 203.48,-35.98 205.19,-29.19"/>
<text text-anchor="middle" x="272.82" y="-57.71" font-family="Times,serif" font-size="14.00">Start</text>
</g>
<!-- CCleaner -->
<g id="node4" class="node">
<title>CCleaner</title>
<ellipse fill="#b2dfee" stroke="#b2dfee" cx="281.05" cy="-18" rx="53.89" ry="18"/>
<text text-anchor="middle" x="281.05" y="-14.3" font-family="Times,serif" font-size="14.00">CCleaner</text>
</g>
<!-- ccsetup574&#45;&gt;CCleaner -->
<g id="edge3" class="edge">
<title>ccsetup574-&gt;CCleaner</title>
<path fill="none" stroke="black" d="M399.64,-71.88C375.84,-61.26 345.31,-47.65 321.19,-36.9"/>
<polygon fill="black" stroke="black" points="322.52,-33.66 311.96,-32.78 319.67,-40.05 322.52,-33.66"/>
<text text-anchor="middle" x="337.57" y="-56.25" font-family="Times,serif" font-size="14.00">Start</text>
</g>
<!-- 5.62.40.69 -->
<g id="node5" class="node">
<title>5.62.40.69</title>
<polygon fill="#b2dfee" stroke="#b2dfee" points="438.05,-36 352.58,-18 438.05,0 523.51,-18 438.05,-36"/>
<text text-anchor="middle" x="438.05" y="-14.3" font-family="Times,serif" font-size="14.00">5.62.40.69</text>
</g>
<!-- ccsetup574&#45;&gt;5.62.40.69 -->
<g id="edge4" class="edge">
<title>ccsetup574-&gt;5.62.40.69</title>
<path fill="none" stroke="black" d="M432.13,-71.7C431.31,-63.75 431.1,-54.16 431.48,-45.34"/>
<polygon fill="black" stroke="black" points="434.99,-45.38 432.26,-35.14 428.01,-44.85 434.99,-45.38"/>
<text text-anchor="middle" x="412.8" y="-57.14" font-family="Times,serif" font-size="14.00">Send</text>
</g>
<!-- 151.101.0.64 -->
<g id="node6" class="node">
<title>151.101.0.64</title>
<polygon fill="#b2dfee" stroke="#b2dfee" points="644.05,-36 541.99,-18 644.05,0 746.1,-18 644.05,-36"/>
<text text-anchor="middle" x="644.05" y="-14.3" font-family="Times,serif" font-size="14.00">151.101.0.64</text>
</g>
<!-- ccsetup574&#45;&gt;151.101.0.64 -->
<g id="edge5" class="edge">
<title>ccsetup574-&gt;151.101.0.64</title>
<path fill="none" stroke="black" d="M482.29,-71.97C516.36,-59.96 563.21,-44.08 597.78,-32.85"/>
<polygon fill="black" stroke="black" points="599.2,-36.07 607.64,-29.67 597.04,-29.41 599.2,-36.07"/>
<text text-anchor="middle" x="526.11" y="-54.31" font-family="Times,serif" font-size="14.00">Send</text>
</g>
<!-- C:\\Users\\User\\AppData\\Local\\Temp\\nsw252C\.tmp -->
<g id="node7" class="node">
<title>C:\\Users\\User\\AppData\\Local\\Temp\\nsw252C\.tmp</title>
<ellipse fill="#ff4040" stroke="#ff4040" cx="1006.05" cy="-18" rx="241.56" ry="18"/>
<text text-anchor="middle" x="1006.05" y="-14.3" font-family="Times,serif" font-size="14.00">C:\Users\User\AppData\Local\Temp\nsw252C.tmp</text>
</g>
<!-- ccsetup574&#45;&gt;C:\\Users\\User\\AppData\\Local\\Temp\\nsw252C\.tmp -->
<g id="edge6" class="edge">
<title>ccsetup574-&gt;C:\\Users\\User\\AppData\\Local\\Temp\\nsw252C\.tmp</title>
<path fill="none" stroke="black" d="M487.46,-82.91C573.44,-72.31 753.17,-50.16 876.71,-34.94"/>
<polygon fill="black" stroke="black" points="877.5,-38.37 886.99,-33.67 876.64,-31.42 877.5,-38.37"/>
<text text-anchor="middle" x="663.77" y="-62.09" font-family="Times,serif" font-size="14.00">Delete</text>
</g>
<!-- C:\\Users\\User\\Downloads\\PerfView\\PerfViewData\.kernel\.etl -->
<g id="node8" class="node">
<title>C:\\Users\\User\\Downloads\\PerfView\\PerfViewData\.kernel\.etl</title>
<ellipse fill="#ff4040" stroke="#ff4040" cx="1554.05" cy="-18" rx="287.85" ry="18"/>
<text text-anchor="middle" x="1554.05" y="-14.3" font-family="Times,serif" font-size="14.00">C:\Users\User\Downloads\PerfView\PerfViewData.kernel.etl</text>
</g>
<!-- ccsetup574&#45;&gt;C:\\Users\\User\\Downloads\\PerfView\\PerfViewData\.kernel\.etl -->
<g id="edge7" class="edge">
<title>ccsetup574-&gt;C:\\Users\\User\\Downloads\\PerfView\\PerfViewData\.kernel\.etl</title>
<path fill="none" stroke="black" d="M487.08,-85.92C634.89,-76.65 1082.3,-48.59 1348.5,-31.89"/>
<polygon fill="black" stroke="black" points="1348.92,-35.37 1358.68,-31.25 1348.48,-28.39 1348.92,-35.37"/>
<text text-anchor="middle" x="902.66" y="-62.4" font-family="Times,serif" font-size="14.00">Write</text>
</g>
<!-- C:\\Windows\\system32\\IMM32\.DLL -->
<g id="node9" class="node">
<title>C:\\Windows\\system32\\IMM32\.DLL</title>
<ellipse fill="#ff4040" stroke="#ff4040" cx="2032.05" cy="-18" rx="171.67" ry="18"/>
<text text-anchor="middle" x="2032.05" y="-14.3" font-family="Times,serif" font-size="14.00">C:\Windows\system32\IMM32.DLL</text>
</g>
<!-- ccsetup574&#45;&gt;C:\\Windows\\system32\\IMM32\.DLL -->
<g id="edge8" class="edge">
<title>ccsetup574-&gt;C:\\Windows\\system32\\IMM32\.DLL</title>
<path fill="none" stroke="black" d="M487.22,-88.16C668.61,-84.83 1317.35,-71.04 1851.05,-36 1868.03,-34.88 1885.88,-33.49 1903.5,-31.97"/>
<polygon fill="black" stroke="black" points="1904.17,-35.43 1913.83,-31.07 1903.56,-28.45 1904.17,-35.43"/>
<text text-anchor="middle" x="1176.13" y="-72.04" font-family="Times,serif" font-size="14.00">Create</text>
</g>
<!-- 3,568&#45;&gt;ccsetup574 -->
<g id="edge9" class="edge">
<title>3,568-&gt;ccsetup574</title>
<path fill="none" stroke="black" d="M67.98,-28.14C76.16,-30.99 84.89,-33.94 93.05,-36 191.89,-61.01 309.45,-75.73 378.76,-83.08"/>
<polygon fill="black" stroke="black" points="378.74,-86.6 389.05,-84.16 379.46,-79.64 378.74,-86.6"/>
<text text-anchor="middle" x="208.82" y="-51.87" font-family="Times,serif" font-size="14.00">Start</text>
</g>
<!-- 5.62.40.69&#45;&gt;ccsetup574 -->
<g id="edge10" class="edge">
<title>5.62.40.69-&gt;ccsetup574</title>
<path fill="none" stroke="black" d="M443.84,-35.14C444.73,-43.01 445,-52.68 444.65,-61.64"/>
<polygon fill="black" stroke="black" points="441.15,-61.48 443.96,-71.7 448.14,-61.96 441.15,-61.48"/>
<text text-anchor="middle" x="462.3" y="-57.34" font-family="Times,serif" font-size="14.00">Recv</text>
</g>
<!-- 151.101.0.64&#45;&gt;ccsetup574 -->
<g id="edge11" class="edge">
<title>151.101.0.64-&gt;ccsetup574</title>
<path fill="none" stroke="black" d="M614.42,-30.84C583.71,-41.87 535.11,-58.47 496.65,-71.12"/>
<polygon fill="black" stroke="black" points="495.52,-67.8 487.11,-74.24 497.7,-74.46 495.52,-67.8"/>
<text text-anchor="middle" x="568.59" y="-56.68" font-family="Times,serif" font-size="14.00">Recv</text>
</g>
<!-- C:\\Windows\\System32\\kernel32\.dll -->
<g id="node10" class="node">
<title>C:\\Windows\\System32\\kernel32\.dll</title>
<ellipse fill="#ff4040" stroke="#ff4040" cx="438.05" cy="-162" rx="172.77" ry="18"/>
<text text-anchor="middle" x="438.05" y="-158.3" font-family="Times,serif" font-size="14.00">C:\Windows\System32\kernel32.dll</text>
</g>
<!-- C:\\Windows\\System32\\kernel32\.dll&#45;&gt;ccsetup574 -->
<g id="edge12" class="edge">
<title>C:\\Windows\\System32\\kernel32\.dll-&gt;ccsetup574</title>
<path fill="none" stroke="black" d="M438.05,-143.7C438.05,-135.98 438.05,-126.71 438.05,-118.11"/>
<polygon fill="black" stroke="black" points="441.55,-118.1 438.05,-108.1 434.55,-118.1 441.55,-118.1"/>
<text text-anchor="middle" x="419.55" y="-129.69" font-family="Times,serif" font-size="14.00">Read</text>
</g>
</g>
</svg>